<svg width="524" height="262" viewBox="0 0 524 262" fill="none" xmlns="http://www.w3.org/2000/svg">
<mask id="path-1-inside-1_418_4569" fill="white">
<path d="M62 100H524V146H62V100Z"/>
</mask>
<path d="M62 146V146.5H63.9914V146V145.5H62V146ZM67.9741 146V146.5H71.9569V146V145.5H67.9741V146ZM75.9397 146V146.5H79.9224V146V145.5H75.9397V146ZM83.9052 146V146.5H87.8879V146V145.5H83.9052V146ZM91.8707 146V146.5H95.8534V146V145.5H91.8707V146ZM99.8362 146V146.5H103.819V146V145.5H99.8362V146ZM107.802 146V146.5H111.784V146V145.5H107.802V146ZM115.767 146V146.5H119.75V146V145.5H115.767V146ZM123.733 146V146.5H127.716V146V145.5H123.733V146ZM131.698 146V146.5H135.681V146V145.5H131.698V146ZM139.664 146V146.5H143.647V146V145.5H139.664V146ZM147.629 146V146.5H151.612V146V145.5H147.629V146ZM155.595 146V146.5H159.578V146V145.5H155.595V146ZM163.56 146V146.5H167.543V146V145.5H163.56V146ZM171.526 146V146.5H175.509V146V145.5H171.526V146ZM179.491 146V146.5H183.474V146V145.5H179.491V146ZM187.457 146V146.5H191.44V146V145.5H187.457V146ZM195.422 146V146.5H199.405V146V145.5H195.422V146ZM203.388 146V146.5H207.371V146V145.5H203.388V146ZM211.353 146V146.5H215.336V146V145.5H211.353V146ZM219.319 146V146.5H223.302V146V145.5H219.319V146ZM227.284 146V146.5H231.267V146V145.5H227.284V146ZM235.25 146V146.5H239.233V146V145.5H235.25V146ZM243.215 146V146.5H247.198V146V145.5H243.215V146ZM251.181 146V146.5H255.164V146V145.5H251.181V146ZM259.147 146V146.5H263.129V146V145.5H259.147V146ZM267.112 146V146.5H271.095V146V145.5H267.112V146ZM275.078 146V146.5H279.06V146V145.5H275.078V146ZM283.043 146V146.5H287.026V146V145.5H283.043V146ZM291.009 146V146.5H294.991V146V145.5H291.009V146ZM298.974 146V146.5H302.957V146V145.5H298.974V146ZM306.94 146V146.5H310.922V146V145.5H306.94V146ZM314.905 146V146.5H318.888V146V145.5H314.905V146ZM322.871 146V146.5H326.853V146V145.5H322.871V146ZM330.836 146V146.5H334.819V146V145.5H330.836V146ZM338.802 146V146.5H342.784V146V145.5H338.802V146ZM346.767 146V146.5H350.75V146V145.5H346.767V146ZM354.733 146V146.5H358.715V146V145.5H354.733V146ZM362.698 146V146.5H366.681V146V145.5H362.698V146ZM370.664 146V146.5H374.646V146V145.5H370.664V146ZM378.629 146V146.5H382.612V146V145.5H378.629V146ZM386.595 146V146.5H390.578V146V145.5H386.595V146ZM394.56 146V146.5H398.543V146V145.5H394.56V146ZM402.526 146V146.5H406.509V146V145.5H402.526V146ZM410.491 146V146.5H414.474V146V145.5H410.491V146ZM418.457 146V146.5H422.44V146V145.5H418.457V146ZM426.422 146V146.5H430.405V146V145.5H426.422V146ZM434.388 146V146.5H438.371V146V145.5H434.388V146ZM442.353 146V146.5H446.336V146V145.5H442.353V146ZM450.319 146V146.5H454.302V146V145.5H450.319V146ZM458.284 146V146.5H462.267V146V145.5H458.284V146ZM466.25 146V146.5H470.233V146V145.5H466.25V146ZM474.215 146V146.5H478.198V146V145.5H474.215V146ZM482.181 146V146.5H486.164V146V145.5H482.181V146ZM490.146 146V146.5H494.129V146V145.5H490.146V146ZM498.112 146V146.5H502.095V146V145.5H498.112V146ZM506.077 146V146.5H510.06V146V145.5H506.077V146ZM514.043 146V146.5H518.026V146V145.5H514.043V146ZM522.009 146V146.5H524V146V145.5H522.009V146ZM62 146V147H63.9914V146V145H62V146ZM67.9741 146V147H71.9569V146V145H67.9741V146ZM75.9397 146V147H79.9224V146V145H75.9397V146ZM83.9052 146V147H87.8879V146V145H83.9052V146ZM91.8707 146V147H95.8534V146V145H91.8707V146ZM99.8362 146V147H103.819V146V145H99.8362V146ZM107.802 146V147H111.784V146V145H107.802V146ZM115.767 146V147H119.75V146V145H115.767V146ZM123.733 146V147H127.716V146V145H123.733V146ZM131.698 146V147H135.681V146V145H131.698V146ZM139.664 146V147H143.647V146V145H139.664V146ZM147.629 146V147H151.612V146V145H147.629V146ZM155.595 146V147H159.578V146V145H155.595V146ZM163.56 146V147H167.543V146V145H163.56V146ZM171.526 146V147H175.509V146V145H171.526V146ZM179.491 146V147H183.474V146V145H179.491V146ZM187.457 146V147H191.44V146V145H187.457V146ZM195.422 146V147H199.405V146V145H195.422V146ZM203.388 146V147H207.371V146V145H203.388V146ZM211.353 146V147H215.336V146V145H211.353V146ZM219.319 146V147H223.302V146V145H219.319V146ZM227.284 146V147H231.267V146V145H227.284V146ZM235.25 146V147H239.233V146V145H235.25V146ZM243.215 146V147H247.198V146V145H243.215V146ZM251.181 146V147H255.164V146V145H251.181V146ZM259.147 146V147H263.129V146V145H259.147V146ZM267.112 146V147H271.095V146V145H267.112V146ZM275.078 146V147H279.06V146V145H275.078V146ZM283.043 146V147H287.026V146V145H283.043V146ZM291.009 146V147H294.991V146V145H291.009V146ZM298.974 146V147H302.957V146V145H298.974V146ZM306.94 146V147H310.922V146V145H306.94V146ZM314.905 146V147H318.888V146V145H314.905V146ZM322.871 146V147H326.853V146V145H322.871V146ZM330.836 146V147H334.819V146V145H330.836V146ZM338.802 146V147H342.784V146V145H338.802V146ZM346.767 146V147H350.75V146V145H346.767V146ZM354.733 146V147H358.715V146V145H354.733V146ZM362.698 146V147H366.681V146V145H362.698V146ZM370.664 146V147H374.646V146V145H370.664V146ZM378.629 146V147H382.612V146V145H378.629V146ZM386.595 146V147H390.578V146V145H386.595V146ZM394.56 146V147H398.543V146V145H394.56V146ZM402.526 146V147H406.509V146V145H402.526V146ZM410.491 146V147H414.474V146V145H410.491V146ZM418.457 146V147H422.44V146V145H418.457V146ZM426.422 146V147H430.405V146V145H426.422V146ZM434.388 146V147H438.371V146V145H434.388V146ZM442.353 146V147H446.336V146V145H442.353V146ZM450.319 146V147H454.302V146V145H450.319V146ZM458.284 146V147H462.267V146V145H458.284V146ZM466.25 146V147H470.233V146V145H466.25V146ZM474.215 146V147H478.198V146V145H474.215V146ZM482.181 146V147H486.164V146V145H482.181V146ZM490.146 146V147H494.129V146V145H490.146V146ZM498.112 146V147H502.095V146V145H498.112V146ZM506.077 146V147H510.06V146V145H506.077V146ZM514.043 146V147H518.026V146V145H514.043V146ZM522.009 146V147H524V146V145H522.009V146Z" fill="#E6E9ED" mask="url(#path-1-inside-1_418_4569)"/>
<mask id="path-3-inside-2_418_4569" fill="white">
<path d="M62 54H524V100H62V54Z"/>
</mask>
<path d="M62 100V100.5H63.9914V100V99.5H62V100ZM67.9741 100V100.5H71.9569V100V99.5H67.9741V100ZM75.9397 100V100.5H79.9224V100V99.5H75.9397V100ZM83.9052 100V100.5H87.8879V100V99.5H83.9052V100ZM91.8707 100V100.5H95.8534V100V99.5H91.8707V100ZM99.8362 100V100.5H103.819V100V99.5H99.8362V100ZM107.802 100V100.5H111.784V100V99.5H107.802V100ZM115.767 100V100.5H119.75V100V99.5H115.767V100ZM123.733 100V100.5H127.716V100V99.5H123.733V100ZM131.698 100V100.5H135.681V100V99.5H131.698V100ZM139.664 100V100.5H143.647V100V99.5H139.664V100ZM147.629 100V100.5H151.612V100V99.5H147.629V100ZM155.595 100V100.5H159.578V100V99.5H155.595V100ZM163.56 100V100.5H167.543V100V99.5H163.56V100ZM171.526 100V100.5H175.509V100V99.5H171.526V100ZM179.491 100V100.5H183.474V100V99.5H179.491V100ZM187.457 100V100.5H191.44V100V99.5H187.457V100ZM195.422 100V100.5H199.405V100V99.5H195.422V100ZM203.388 100V100.5H207.371V100V99.5H203.388V100ZM211.353 100V100.5H215.336V100V99.5H211.353V100ZM219.319 100V100.5H223.302V100V99.5H219.319V100ZM227.284 100V100.5H231.267V100V99.5H227.284V100ZM235.25 100V100.5H239.233V100V99.5H235.25V100ZM243.215 100V100.5H247.198V100V99.5H243.215V100ZM251.181 100V100.5H255.164V100V99.5H251.181V100ZM259.147 100V100.5H263.129V100V99.5H259.147V100ZM267.112 100V100.5H271.095V100V99.5H267.112V100ZM275.078 100V100.5H279.06V100V99.5H275.078V100ZM283.043 100V100.5H287.026V100V99.5H283.043V100ZM291.009 100V100.5H294.991V100V99.5H291.009V100ZM298.974 100V100.5H302.957V100V99.5H298.974V100ZM306.94 100V100.5H310.922V100V99.5H306.94V100ZM314.905 100V100.5H318.888V100V99.5H314.905V100ZM322.871 100V100.5H326.853V100V99.5H322.871V100ZM330.836 100V100.5H334.819V100V99.5H330.836V100ZM338.802 100V100.5H342.784V100V99.5H338.802V100ZM346.767 100V100.5H350.75V100V99.5H346.767V100ZM354.733 100V100.5H358.715V100V99.5H354.733V100ZM362.698 100V100.5H366.681V100V99.5H362.698V100ZM370.664 100V100.5H374.646V100V99.5H370.664V100ZM378.629 100V100.5H382.612V100V99.5H378.629V100ZM386.595 100V100.5H390.578V100V99.5H386.595V100ZM394.56 100V100.5H398.543V100V99.5H394.56V100ZM402.526 100V100.5H406.509V100V99.5H402.526V100ZM410.491 100V100.5H414.474V100V99.5H410.491V100ZM418.457 100V100.5H422.44V100V99.5H418.457V100ZM426.422 100V100.5H430.405V100V99.5H426.422V100ZM434.388 100V100.5H438.371V100V99.5H434.388V100ZM442.353 100V100.5H446.336V100V99.5H442.353V100ZM450.319 100V100.5H454.302V100V99.5H450.319V100ZM458.284 100V100.5H462.267V100V99.5H458.284V100ZM466.25 100V100.5H470.233V100V99.5H466.25V100ZM474.215 100V100.5H478.198V100V99.5H474.215V100ZM482.181 100V100.5H486.164V100V99.5H482.181V100ZM490.146 100V100.5H494.129V100V99.5H490.146V100ZM498.112 100V100.5H502.095V100V99.5H498.112V100ZM506.077 100V100.5H510.06V100V99.5H506.077V100ZM514.043 100V100.5H518.026V100V99.5H514.043V100ZM522.009 100V100.5H524V100V99.5H522.009V100ZM62 100V101H63.9914V100V99H62V100ZM67.9741 100V101H71.9569V100V99H67.9741V100ZM75.9397 100V101H79.9224V100V99H75.9397V100ZM83.9052 100V101H87.8879V100V99H83.9052V100ZM91.8707 100V101H95.8534V100V99H91.8707V100ZM99.8362 100V101H103.819V100V99H99.8362V100ZM107.802 100V101H111.784V100V99H107.802V100ZM115.767 100V101H119.75V100V99H115.767V100ZM123.733 100V101H127.716V100V99H123.733V100ZM131.698 100V101H135.681V100V99H131.698V100ZM139.664 100V101H143.647V100V99H139.664V100ZM147.629 100V101H151.612V100V99H147.629V100ZM155.595 100V101H159.578V100V99H155.595V100ZM163.56 100V101H167.543V100V99H163.56V100ZM171.526 100V101H175.509V100V99H171.526V100ZM179.491 100V101H183.474V100V99H179.491V100ZM187.457 100V101H191.44V100V99H187.457V100ZM195.422 100V101H199.405V100V99H195.422V100ZM203.388 100V101H207.371V100V99H203.388V100ZM211.353 100V101H215.336V100V99H211.353V100ZM219.319 100V101H223.302V100V99H219.319V100ZM227.284 100V101H231.267V100V99H227.284V100ZM235.25 100V101H239.233V100V99H235.25V100ZM243.215 100V101H247.198V100V99H243.215V100ZM251.181 100V101H255.164V100V99H251.181V100ZM259.147 100V101H263.129V100V99H259.147V100ZM267.112 100V101H271.095V100V99H267.112V100ZM275.078 100V101H279.06V100V99H275.078V100ZM283.043 100V101H287.026V100V99H283.043V100ZM291.009 100V101H294.991V100V99H291.009V100ZM298.974 100V101H302.957V100V99H298.974V100ZM306.94 100V101H310.922V100V99H306.94V100ZM314.905 100V101H318.888V100V99H314.905V100ZM322.871 100V101H326.853V100V99H322.871V100ZM330.836 100V101H334.819V100V99H330.836V100ZM338.802 100V101H342.784V100V99H338.802V100ZM346.767 100V101H350.75V100V99H346.767V100ZM354.733 100V101H358.715V100V99H354.733V100ZM362.698 100V101H366.681V100V99H362.698V100ZM370.664 100V101H374.646V100V99H370.664V100ZM378.629 100V101H382.612V100V99H378.629V100ZM386.595 100V101H390.578V100V99H386.595V100ZM394.56 100V101H398.543V100V99H394.56V100ZM402.526 100V101H406.509V100V99H402.526V100ZM410.491 100V101H414.474V100V99H410.491V100ZM418.457 100V101H422.44V100V99H418.457V100ZM426.422 100V101H430.405V100V99H426.422V100ZM434.388 100V101H438.371V100V99H434.388V100ZM442.353 100V101H446.336V100V99H442.353V100ZM450.319 100V101H454.302V100V99H450.319V100ZM458.284 100V101H462.267V100V99H458.284V100ZM466.25 100V101H470.233V100V99H466.25V100ZM474.215 100V101H478.198V100V99H474.215V100ZM482.181 100V101H486.164V100V99H482.181V100ZM490.146 100V101H494.129V100V99H490.146V100ZM498.112 100V101H502.095V100V99H498.112V100ZM506.077 100V101H510.06V100V99H506.077V100ZM514.043 100V101H518.026V100V99H514.043V100ZM522.009 100V101H524V100V99H522.009V100Z" fill="#E6E9ED" mask="url(#path-3-inside-2_418_4569)"/>
<mask id="path-5-inside-3_418_4569" fill="white">
<path d="M62 8H524V54H62V8Z"/>
</mask>
<path d="M62 54V54.5H63.9914V54V53.5H62V54ZM67.9741 54V54.5H71.9569V54V53.5H67.9741V54ZM75.9397 54V54.5H79.9224V54V53.5H75.9397V54ZM83.9052 54V54.5H87.8879V54V53.5H83.9052V54ZM91.8707 54V54.5H95.8534V54V53.5H91.8707V54ZM99.8362 54V54.5H103.819V54V53.5H99.8362V54ZM107.802 54V54.5H111.784V54V53.5H107.802V54ZM115.767 54V54.5H119.75V54V53.5H115.767V54ZM123.733 54V54.5H127.716V54V53.5H123.733V54ZM131.698 54V54.5H135.681V54V53.5H131.698V54ZM139.664 54V54.5H143.647V54V53.5H139.664V54ZM147.629 54V54.5H151.612V54V53.5H147.629V54ZM155.595 54V54.5H159.578V54V53.5H155.595V54ZM163.56 54V54.5H167.543V54V53.5H163.56V54ZM171.526 54V54.5H175.509V54V53.5H171.526V54ZM179.491 54V54.5H183.474V54V53.5H179.491V54ZM187.457 54V54.5H191.44V54V53.5H187.457V54ZM195.422 54V54.5H199.405V54V53.5H195.422V54ZM203.388 54V54.5H207.371V54V53.5H203.388V54ZM211.353 54V54.5H215.336V54V53.5H211.353V54ZM219.319 54V54.5H223.302V54V53.5H219.319V54ZM227.284 54V54.5H231.267V54V53.5H227.284V54ZM235.25 54V54.5H239.233V54V53.5H235.25V54ZM243.215 54V54.5H247.198V54V53.5H243.215V54ZM251.181 54V54.5H255.164V54V53.5H251.181V54ZM259.147 54V54.5H263.129V54V53.5H259.147V54ZM267.112 54V54.5H271.095V54V53.5H267.112V54ZM275.078 54V54.5H279.06V54V53.5H275.078V54ZM283.043 54V54.5H287.026V54V53.5H283.043V54ZM291.009 54V54.5H294.991V54V53.5H291.009V54ZM298.974 54V54.5H302.957V54V53.5H298.974V54ZM306.94 54V54.5H310.922V54V53.5H306.94V54ZM314.905 54V54.5H318.888V54V53.5H314.905V54ZM322.871 54V54.5H326.853V54V53.5H322.871V54ZM330.836 54V54.5H334.819V54V53.5H330.836V54ZM338.802 54V54.5H342.784V54V53.5H338.802V54ZM346.767 54V54.5H350.75V54V53.5H346.767V54ZM354.733 54V54.5H358.715V54V53.5H354.733V54ZM362.698 54V54.5H366.681V54V53.5H362.698V54ZM370.664 54V54.5H374.646V54V53.5H370.664V54ZM378.629 54V54.5H382.612V54V53.5H378.629V54ZM386.595 54V54.5H390.578V54V53.5H386.595V54ZM394.56 54V54.5H398.543V54V53.5H394.56V54ZM402.526 54V54.5H406.509V54V53.5H402.526V54ZM410.491 54V54.5H414.474V54V53.5H410.491V54ZM418.457 54V54.5H422.44V54V53.5H418.457V54ZM426.422 54V54.5H430.405V54V53.5H426.422V54ZM434.388 54V54.5H438.371V54V53.5H434.388V54ZM442.353 54V54.5H446.336V54V53.5H442.353V54ZM450.319 54V54.5H454.302V54V53.5H450.319V54ZM458.284 54V54.5H462.267V54V53.5H458.284V54ZM466.25 54V54.5H470.233V54V53.5H466.25V54ZM474.215 54V54.5H478.198V54V53.5H474.215V54ZM482.181 54V54.5H486.164V54V53.5H482.181V54ZM490.146 54V54.5H494.129V54V53.5H490.146V54ZM498.112 54V54.5H502.095V54V53.5H498.112V54ZM506.077 54V54.5H510.06V54V53.5H506.077V54ZM514.043 54V54.5H518.026V54V53.5H514.043V54ZM522.009 54V54.5H524V54V53.5H522.009V54ZM524 8V7.5H522.009V8V8.5H524V8ZM518.026 8V7.5H514.043V8V8.5H518.026V8ZM510.06 8V7.5H506.078V8V8.5H510.06V8ZM502.095 8V7.5H498.112V8V8.5H502.095V8ZM494.129 8V7.5H490.147V8V8.5H494.129V8ZM486.164 8V7.5H482.181V8V8.5H486.164V8ZM478.198 8V7.5H474.216V8V8.5H478.198V8ZM470.233 8V7.5H466.25V8V8.5H470.233V8ZM462.267 8V7.5H458.284V8V8.5H462.267V8ZM454.302 8V7.5H450.319V8V8.5H454.302V8ZM446.336 8V7.5H442.353V8V8.5H446.336V8ZM438.371 8V7.5H434.388V8V8.5H438.371V8ZM430.405 8V7.5H426.422V8V8.5H430.405V8ZM422.44 8V7.5H418.457V8V8.5H422.44V8ZM414.474 8V7.5H410.491V8V8.5H414.474V8ZM406.509 8V7.5H402.526V8V8.5H406.509V8ZM398.543 8V7.5H394.56V8V8.5H398.543V8ZM390.578 8V7.5H386.595V8V8.5H390.578V8ZM382.612 8V7.5H378.629V8V8.5H382.612V8ZM374.647 8V7.5H370.664V8V8.5H374.647V8ZM366.681 8V7.5H362.698V8V8.5H366.681V8ZM358.716 8V7.5H354.733V8V8.5H358.716V8ZM350.75 8V7.5H346.767V8V8.5H350.75V8ZM342.785 8V7.5H338.802V8V8.5H342.785V8ZM334.819 8V7.5H330.836V8V8.5H334.819V8ZM326.853 8V7.5H322.871V8V8.5H326.853V8ZM318.888 8V7.5H314.905V8V8.5H318.888V8ZM310.922 8V7.5H306.94V8V8.5H310.922V8ZM302.957 8V7.5H298.974V8V8.5H302.957V8ZM294.991 8V7.5H291.009V8V8.5H294.991V8ZM287.026 8V7.5H283.043V8V8.5H287.026V8ZM279.06 8V7.5H275.078V8V8.5H279.06V8ZM271.095 8V7.5H267.112V8V8.5H271.095V8ZM263.129 8V7.5H259.147V8V8.5H263.129V8ZM255.164 8V7.5H251.181V8V8.5H255.164V8ZM247.198 8V7.5H243.216V8V8.5H247.198V8ZM239.233 8V7.5H235.25V8V8.5H239.233V8ZM231.267 8V7.5H227.285V8V8.5H231.267V8ZM223.302 8V7.5H219.319V8V8.5H223.302V8ZM215.336 8V7.5H211.354V8V8.5H215.336V8ZM207.371 8V7.5H203.388V8V8.5H207.371V8ZM199.405 8V7.5H195.422V8V8.5H199.405V8ZM191.44 8V7.5H187.457V8V8.5H191.44V8ZM183.474 8V7.5H179.491V8V8.5H183.474V8ZM175.509 8V7.5H171.526V8V8.5H175.509V8ZM167.543 8V7.5H163.56V8V8.5H167.543V8ZM159.578 8V7.5H155.595V8V8.5H159.578V8ZM151.612 8V7.5H147.629V8V8.5H151.612V8ZM143.647 8V7.5H139.664V8V8.5H143.647V8ZM135.681 8V7.5H131.698V8V8.5H135.681V8ZM127.716 8V7.5H123.733V8V8.5H127.716V8ZM119.75 8V7.5H115.767V8V8.5H119.75V8ZM111.785 8V7.5H107.802V8V8.5H111.785V8ZM103.819 8V7.5H99.8363V8V8.5H103.819V8ZM95.8536 8V7.5H91.8708V8V8.5H95.8536V8ZM87.888 8V7.5H83.9053V8V8.5H87.888V8ZM79.9225 8V7.5H75.9398V8V8.5H79.9225V8ZM71.957 8V7.5H67.9743V8V8.5H71.957V8ZM63.9915 8V7.5H62V8V8.5H63.9915V8ZM62 54V55H63.9914V54V53H62V54ZM67.9741 54V55H71.9569V54V53H67.9741V54ZM75.9397 54V55H79.9224V54V53H75.9397V54ZM83.9052 54V55H87.8879V54V53H83.9052V54ZM91.8707 54V55H95.8534V54V53H91.8707V54ZM99.8362 54V55H103.819V54V53H99.8362V54ZM107.802 54V55H111.784V54V53H107.802V54ZM115.767 54V55H119.75V54V53H115.767V54ZM123.733 54V55H127.716V54V53H123.733V54ZM131.698 54V55H135.681V54V53H131.698V54ZM139.664 54V55H143.647V54V53H139.664V54ZM147.629 54V55H151.612V54V53H147.629V54ZM155.595 54V55H159.578V54V53H155.595V54ZM163.56 54V55H167.543V54V53H163.56V54ZM171.526 54V55H175.509V54V53H171.526V54ZM179.491 54V55H183.474V54V53H179.491V54ZM187.457 54V55H191.44V54V53H187.457V54ZM195.422 54V55H199.405V54V53H195.422V54ZM203.388 54V55H207.371V54V53H203.388V54ZM211.353 54V55H215.336V54V53H211.353V54ZM219.319 54V55H223.302V54V53H219.319V54ZM227.284 54V55H231.267V54V53H227.284V54ZM235.25 54V55H239.233V54V53H235.25V54ZM243.215 54V55H247.198V54V53H243.215V54ZM251.181 54V55H255.164V54V53H251.181V54ZM259.147 54V55H263.129V54V53H259.147V54ZM267.112 54V55H271.095V54V53H267.112V54ZM275.078 54V55H279.06V54V53H275.078V54ZM283.043 54V55H287.026V54V53H283.043V54ZM291.009 54V55H294.991V54V53H291.009V54ZM298.974 54V55H302.957V54V53H298.974V54ZM306.94 54V55H310.922V54V53H306.94V54ZM314.905 54V55H318.888V54V53H314.905V54ZM322.871 54V55H326.853V54V53H322.871V54ZM330.836 54V55H334.819V54V53H330.836V54ZM338.802 54V55H342.784V54V53H338.802V54ZM346.767 54V55H350.75V54V53H346.767V54ZM354.733 54V55H358.715V54V53H354.733V54ZM362.698 54V55H366.681V54V53H362.698V54ZM370.664 54V55H374.646V54V53H370.664V54ZM378.629 54V55H382.612V54V53H378.629V54ZM386.595 54V55H390.578V54V53H386.595V54ZM394.56 54V55H398.543V54V53H394.56V54ZM402.526 54V55H406.509V54V53H402.526V54ZM410.491 54V55H414.474V54V53H410.491V54ZM418.457 54V55H422.44V54V53H418.457V54ZM426.422 54V55H430.405V54V53H426.422V54ZM434.388 54V55H438.371V54V53H434.388V54ZM442.353 54V55H446.336V54V53H442.353V54ZM450.319 54V55H454.302V54V53H450.319V54ZM458.284 54V55H462.267V54V53H458.284V54ZM466.25 54V55H470.233V54V53H466.25V54ZM474.215 54V55H478.198V54V53H474.215V54ZM482.181 54V55H486.164V54V53H482.181V54ZM490.146 54V55H494.129V54V53H490.146V54ZM498.112 54V55H502.095V54V53H498.112V54ZM506.077 54V55H510.06V54V53H506.077V54ZM514.043 54V55H518.026V54V53H514.043V54ZM522.009 54V55H524V54V53H522.009V54ZM524 8V7H522.009V8V9H524V8ZM518.026 8V7H514.043V8V9H518.026V8ZM510.06 8V7H506.078V8V9H510.06V8ZM502.095 8V7H498.112V8V9H502.095V8ZM494.129 8V7H490.147V8V9H494.129V8ZM486.164 8V7H482.181V8V9H486.164V8ZM478.198 8V7H474.216V8V9H478.198V8ZM470.233 8V7H466.25V8V9H470.233V8ZM462.267 8V7H458.284V8V9H462.267V8ZM454.302 8V7H450.319V8V9H454.302V8ZM446.336 8V7H442.353V8V9H446.336V8ZM438.371 8V7H434.388V8V9H438.371V8ZM430.405 8V7H426.422V8V9H430.405V8ZM422.44 8V7H418.457V8V9H422.44V8ZM414.474 8V7H410.491V8V9H414.474V8ZM406.509 8V7H402.526V8V9H406.509V8ZM398.543 8V7H394.56V8V9H398.543V8ZM390.578 8V7H386.595V8V9H390.578V8ZM382.612 8V7H378.629V8V9H382.612V8ZM374.647 8V7H370.664V8V9H374.647V8ZM366.681 8V7H362.698V8V9H366.681V8ZM358.716 8V7H354.733V8V9H358.716V8ZM350.75 8V7H346.767V8V9H350.75V8ZM342.785 8V7H338.802V8V9H342.785V8ZM334.819 8V7H330.836V8V9H334.819V8ZM326.853 8V7H322.871V8V9H326.853V8ZM318.888 8V7H314.905V8V9H318.888V8ZM310.922 8V7H306.94V8V9H310.922V8ZM302.957 8V7H298.974V8V9H302.957V8ZM294.991 8V7H291.009V8V9H294.991V8ZM287.026 8V7H283.043V8V9H287.026V8ZM279.06 8V7H275.078V8V9H279.06V8ZM271.095 8V7H267.112V8V9H271.095V8ZM263.129 8V7H259.147V8V9H263.129V8ZM255.164 8V7H251.181V8V9H255.164V8ZM247.198 8V7H243.216V8V9H247.198V8ZM239.233 8V7H235.25V8V9H239.233V8ZM231.267 8V7H227.285V8V9H231.267V8ZM223.302 8V7H219.319V8V9H223.302V8ZM215.336 8V7H211.354V8V9H215.336V8ZM207.371 8V7H203.388V8V9H207.371V8ZM199.405 8V7H195.422V8V9H199.405V8ZM191.44 8V7H187.457V8V9H191.44V8ZM183.474 8V7H179.491V8V9H183.474V8ZM175.509 8V7H171.526V8V9H175.509V8ZM167.543 8V7H163.56V8V9H167.543V8ZM159.578 8V7H155.595V8V9H159.578V8ZM151.612 8V7H147.629V8V9H151.612V8ZM143.647 8V7H139.664V8V9H143.647V8ZM135.681 8V7H131.698V8V9H135.681V8ZM127.716 8V7H123.733V8V9H127.716V8ZM119.75 8V7H115.767V8V9H119.75V8ZM111.785 8V7H107.802V8V9H111.785V8ZM103.819 8V7H99.8363V8V9H103.819V8ZM95.8536 8V7H91.8708V8V9H95.8536V8ZM87.888 8V7H83.9053V8V9H87.888V8ZM79.9225 8V7H75.9398V8V9H79.9225V8ZM71.957 8V7H67.9743V8V9H71.957V8ZM63.9915 8V7H62V8V9H63.9915V8Z" fill="#E6E9ED" mask="url(#path-5-inside-3_418_4569)"/>
<mask id="path-7-inside-4_418_4569" fill="white">
<path d="M62 192H524V238H62V192Z"/>
</mask>
<path d="M62 238V238.5H63.9914V238V237.5H62V238ZM67.9741 238V238.5H71.9569V238V237.5H67.9741V238ZM75.9397 238V238.5H79.9224V238V237.5H75.9397V238ZM83.9052 238V238.5H87.8879V238V237.5H83.9052V238ZM91.8707 238V238.5H95.8534V238V237.5H91.8707V238ZM99.8362 238V238.5H103.819V238V237.5H99.8362V238ZM107.802 238V238.5H111.784V238V237.5H107.802V238ZM115.767 238V238.5H119.75V238V237.5H115.767V238ZM123.733 238V238.5H127.716V238V237.5H123.733V238ZM131.698 238V238.5H135.681V238V237.5H131.698V238ZM139.664 238V238.5H143.647V238V237.5H139.664V238ZM147.629 238V238.5H151.612V238V237.5H147.629V238ZM155.595 238V238.5H159.578V238V237.5H155.595V238ZM163.56 238V238.5H167.543V238V237.5H163.56V238ZM171.526 238V238.5H175.509V238V237.5H171.526V238ZM179.491 238V238.5H183.474V238V237.5H179.491V238ZM187.457 238V238.5H191.44V238V237.5H187.457V238ZM195.422 238V238.5H199.405V238V237.5H195.422V238ZM203.388 238V238.5H207.371V238V237.5H203.388V238ZM211.353 238V238.5H215.336V238V237.5H211.353V238ZM219.319 238V238.5H223.302V238V237.5H219.319V238ZM227.284 238V238.5H231.267V238V237.5H227.284V238ZM235.25 238V238.5H239.233V238V237.5H235.25V238ZM243.215 238V238.5H247.198V238V237.5H243.215V238ZM251.181 238V238.5H255.164V238V237.5H251.181V238ZM259.147 238V238.5H263.129V238V237.5H259.147V238ZM267.112 238V238.5H271.095V238V237.5H267.112V238ZM275.078 238V238.5H279.06V238V237.5H275.078V238ZM283.043 238V238.5H287.026V238V237.5H283.043V238ZM291.009 238V238.5H294.991V238V237.5H291.009V238ZM298.974 238V238.5H302.957V238V237.5H298.974V238ZM306.94 238V238.5H310.922V238V237.5H306.94V238ZM314.905 238V238.5H318.888V238V237.5H314.905V238ZM322.871 238V238.5H326.853V238V237.5H322.871V238ZM330.836 238V238.5H334.819V238V237.5H330.836V238ZM338.802 238V238.5H342.784V238V237.5H338.802V238ZM346.767 238V238.5H350.75V238V237.5H346.767V238ZM354.733 238V238.5H358.715V238V237.5H354.733V238ZM362.698 238V238.5H366.681V238V237.5H362.698V238ZM370.664 238V238.5H374.646V238V237.5H370.664V238ZM378.629 238V238.5H382.612V238V237.5H378.629V238ZM386.595 238V238.5H390.578V238V237.5H386.595V238ZM394.56 238V238.5H398.543V238V237.5H394.56V238ZM402.526 238V238.5H406.509V238V237.5H402.526V238ZM410.491 238V238.5H414.474V238V237.5H410.491V238ZM418.457 238V238.5H422.44V238V237.5H418.457V238ZM426.422 238V238.5H430.405V238V237.5H426.422V238ZM434.388 238V238.5H438.371V238V237.5H434.388V238ZM442.353 238V238.5H446.336V238V237.5H442.353V238ZM450.319 238V238.5H454.302V238V237.5H450.319V238ZM458.284 238V238.5H462.267V238V237.5H458.284V238ZM466.25 238V238.5H470.233V238V237.5H466.25V238ZM474.215 238V238.5H478.198V238V237.5H474.215V238ZM482.181 238V238.5H486.164V238V237.5H482.181V238ZM490.146 238V238.5H494.129V238V237.5H490.146V238ZM498.112 238V238.5H502.095V238V237.5H498.112V238ZM506.077 238V238.5H510.06V238V237.5H506.077V238ZM514.043 238V238.5H518.026V238V237.5H514.043V238ZM522.009 238V238.5H524V238V237.5H522.009V238ZM62 238V239H63.9914V238V237H62V238ZM67.9741 238V239H71.9569V238V237H67.9741V238ZM75.9397 238V239H79.9224V238V237H75.9397V238ZM83.9052 238V239H87.8879V238V237H83.9052V238ZM91.8707 238V239H95.8534V238V237H91.8707V238ZM99.8362 238V239H103.819V238V237H99.8362V238ZM107.802 238V239H111.784V238V237H107.802V238ZM115.767 238V239H119.75V238V237H115.767V238ZM123.733 238V239H127.716V238V237H123.733V238ZM131.698 238V239H135.681V238V237H131.698V238ZM139.664 238V239H143.647V238V237H139.664V238ZM147.629 238V239H151.612V238V237H147.629V238ZM155.595 238V239H159.578V238V237H155.595V238ZM163.56 238V239H167.543V238V237H163.56V238ZM171.526 238V239H175.509V238V237H171.526V238ZM179.491 238V239H183.474V238V237H179.491V238ZM187.457 238V239H191.44V238V237H187.457V238ZM195.422 238V239H199.405V238V237H195.422V238ZM203.388 238V239H207.371V238V237H203.388V238ZM211.353 238V239H215.336V238V237H211.353V238ZM219.319 238V239H223.302V238V237H219.319V238ZM227.284 238V239H231.267V238V237H227.284V238ZM235.25 238V239H239.233V238V237H235.25V238ZM243.215 238V239H247.198V238V237H243.215V238ZM251.181 238V239H255.164V238V237H251.181V238ZM259.147 238V239H263.129V238V237H259.147V238ZM267.112 238V239H271.095V238V237H267.112V238ZM275.078 238V239H279.06V238V237H275.078V238ZM283.043 238V239H287.026V238V237H283.043V238ZM291.009 238V239H294.991V238V237H291.009V238ZM298.974 238V239H302.957V238V237H298.974V238ZM306.94 238V239H310.922V238V237H306.94V238ZM314.905 238V239H318.888V238V237H314.905V238ZM322.871 238V239H326.853V238V237H322.871V238ZM330.836 238V239H334.819V238V237H330.836V238ZM338.802 238V239H342.784V238V237H338.802V238ZM346.767 238V239H350.75V238V237H346.767V238ZM354.733 238V239H358.715V238V237H354.733V238ZM362.698 238V239H366.681V238V237H362.698V238ZM370.664 238V239H374.646V238V237H370.664V238ZM378.629 238V239H382.612V238V237H378.629V238ZM386.595 238V239H390.578V238V237H386.595V238ZM394.56 238V239H398.543V238V237H394.56V238ZM402.526 238V239H406.509V238V237H402.526V238ZM410.491 238V239H414.474V238V237H410.491V238ZM418.457 238V239H422.44V238V237H418.457V238ZM426.422 238V239H430.405V238V237H426.422V238ZM434.388 238V239H438.371V238V237H434.388V238ZM442.353 238V239H446.336V238V237H442.353V238ZM450.319 238V239H454.302V238V237H450.319V238ZM458.284 238V239H462.267V238V237H458.284V238ZM466.25 238V239H470.233V238V237H466.25V238ZM474.215 238V239H478.198V238V237H474.215V238ZM482.181 238V239H486.164V238V237H482.181V238ZM490.146 238V239H494.129V238V237H490.146V238ZM498.112 238V239H502.095V238V237H498.112V238ZM506.077 238V239H510.06V238V237H506.077V238ZM514.043 238V239H518.026V238V237H514.043V238ZM522.009 238V239H524V238V237H522.009V238Z" fill="#E6E9ED" mask="url(#path-7-inside-4_418_4569)"/>
<mask id="path-9-inside-5_418_4569" fill="white">
<path d="M62 146H524V192H62V146Z"/>
</mask>
<path d="M62 192V192.5H63.9914V192V191.5H62V192ZM67.9741 192V192.5H71.9569V192V191.5H67.9741V192ZM75.9397 192V192.5H79.9224V192V191.5H75.9397V192ZM83.9052 192V192.5H87.8879V192V191.5H83.9052V192ZM91.8707 192V192.5H95.8534V192V191.5H91.8707V192ZM99.8362 192V192.5H103.819V192V191.5H99.8362V192ZM107.802 192V192.5H111.784V192V191.5H107.802V192ZM115.767 192V192.5H119.75V192V191.5H115.767V192ZM123.733 192V192.5H127.716V192V191.5H123.733V192ZM131.698 192V192.5H135.681V192V191.5H131.698V192ZM139.664 192V192.5H143.647V192V191.5H139.664V192ZM147.629 192V192.5H151.612V192V191.5H147.629V192ZM155.595 192V192.5H159.578V192V191.5H155.595V192ZM163.56 192V192.5H167.543V192V191.5H163.56V192ZM171.526 192V192.5H175.509V192V191.5H171.526V192ZM179.491 192V192.5H183.474V192V191.5H179.491V192ZM187.457 192V192.5H191.44V192V191.5H187.457V192ZM195.422 192V192.5H199.405V192V191.5H195.422V192ZM203.388 192V192.5H207.371V192V191.5H203.388V192ZM211.353 192V192.5H215.336V192V191.5H211.353V192ZM219.319 192V192.5H223.302V192V191.5H219.319V192ZM227.284 192V192.5H231.267V192V191.5H227.284V192ZM235.25 192V192.5H239.233V192V191.5H235.25V192ZM243.215 192V192.5H247.198V192V191.5H243.215V192ZM251.181 192V192.5H255.164V192V191.5H251.181V192ZM259.147 192V192.5H263.129V192V191.5H259.147V192ZM267.112 192V192.5H271.095V192V191.5H267.112V192ZM275.078 192V192.5H279.06V192V191.5H275.078V192ZM283.043 192V192.5H287.026V192V191.5H283.043V192ZM291.009 192V192.5H294.991V192V191.5H291.009V192ZM298.974 192V192.5H302.957V192V191.5H298.974V192ZM306.94 192V192.5H310.922V192V191.5H306.94V192ZM314.905 192V192.5H318.888V192V191.5H314.905V192ZM322.871 192V192.5H326.853V192V191.5H322.871V192ZM330.836 192V192.5H334.819V192V191.5H330.836V192ZM338.802 192V192.5H342.784V192V191.5H338.802V192ZM346.767 192V192.5H350.75V192V191.5H346.767V192ZM354.733 192V192.5H358.715V192V191.5H354.733V192ZM362.698 192V192.5H366.681V192V191.5H362.698V192ZM370.664 192V192.5H374.646V192V191.5H370.664V192ZM378.629 192V192.5H382.612V192V191.5H378.629V192ZM386.595 192V192.5H390.578V192V191.5H386.595V192ZM394.56 192V192.5H398.543V192V191.5H394.56V192ZM402.526 192V192.5H406.509V192V191.5H402.526V192ZM410.491 192V192.5H414.474V192V191.5H410.491V192ZM418.457 192V192.5H422.44V192V191.5H418.457V192ZM426.422 192V192.5H430.405V192V191.5H426.422V192ZM434.388 192V192.5H438.371V192V191.5H434.388V192ZM442.353 192V192.5H446.336V192V191.5H442.353V192ZM450.319 192V192.5H454.302V192V191.5H450.319V192ZM458.284 192V192.5H462.267V192V191.5H458.284V192ZM466.25 192V192.5H470.233V192V191.5H466.25V192ZM474.215 192V192.5H478.198V192V191.5H474.215V192ZM482.181 192V192.5H486.164V192V191.5H482.181V192ZM490.146 192V192.5H494.129V192V191.5H490.146V192ZM498.112 192V192.5H502.095V192V191.5H498.112V192ZM506.077 192V192.5H510.06V192V191.5H506.077V192ZM514.043 192V192.5H518.026V192V191.5H514.043V192ZM522.009 192V192.5H524V192V191.5H522.009V192ZM62 192V193H63.9914V192V191H62V192ZM67.9741 192V193H71.9569V192V191H67.9741V192ZM75.9397 192V193H79.9224V192V191H75.9397V192ZM83.9052 192V193H87.8879V192V191H83.9052V192ZM91.8707 192V193H95.8534V192V191H91.8707V192ZM99.8362 192V193H103.819V192V191H99.8362V192ZM107.802 192V193H111.784V192V191H107.802V192ZM115.767 192V193H119.75V192V191H115.767V192ZM123.733 192V193H127.716V192V191H123.733V192ZM131.698 192V193H135.681V192V191H131.698V192ZM139.664 192V193H143.647V192V191H139.664V192ZM147.629 192V193H151.612V192V191H147.629V192ZM155.595 192V193H159.578V192V191H155.595V192ZM163.56 192V193H167.543V192V191H163.56V192ZM171.526 192V193H175.509V192V191H171.526V192ZM179.491 192V193H183.474V192V191H179.491V192ZM187.457 192V193H191.44V192V191H187.457V192ZM195.422 192V193H199.405V192V191H195.422V192ZM203.388 192V193H207.371V192V191H203.388V192ZM211.353 192V193H215.336V192V191H211.353V192ZM219.319 192V193H223.302V192V191H219.319V192ZM227.284 192V193H231.267V192V191H227.284V192ZM235.25 192V193H239.233V192V191H235.25V192ZM243.215 192V193H247.198V192V191H243.215V192ZM251.181 192V193H255.164V192V191H251.181V192ZM259.147 192V193H263.129V192V191H259.147V192ZM267.112 192V193H271.095V192V191H267.112V192ZM275.078 192V193H279.06V192V191H275.078V192ZM283.043 192V193H287.026V192V191H283.043V192ZM291.009 192V193H294.991V192V191H291.009V192ZM298.974 192V193H302.957V192V191H298.974V192ZM306.94 192V193H310.922V192V191H306.94V192ZM314.905 192V193H318.888V192V191H314.905V192ZM322.871 192V193H326.853V192V191H322.871V192ZM330.836 192V193H334.819V192V191H330.836V192ZM338.802 192V193H342.784V192V191H338.802V192ZM346.767 192V193H350.75V192V191H346.767V192ZM354.733 192V193H358.715V192V191H354.733V192ZM362.698 192V193H366.681V192V191H362.698V192ZM370.664 192V193H374.646V192V191H370.664V192ZM378.629 192V193H382.612V192V191H378.629V192ZM386.595 192V193H390.578V192V191H386.595V192ZM394.56 192V193H398.543V192V191H394.56V192ZM402.526 192V193H406.509V192V191H402.526V192ZM410.491 192V193H414.474V192V191H410.491V192ZM418.457 192V193H422.44V192V191H418.457V192ZM426.422 192V193H430.405V192V191H426.422V192ZM434.388 192V193H438.371V192V191H434.388V192ZM442.353 192V193H446.336V192V191H442.353V192ZM450.319 192V193H454.302V192V191H450.319V192ZM458.284 192V193H462.267V192V191H458.284V192ZM466.25 192V193H470.233V192V191H466.25V192ZM474.215 192V193H478.198V192V191H474.215V192ZM482.181 192V193H486.164V192V191H482.181V192ZM490.146 192V193H494.129V192V191H490.146V192ZM498.112 192V193H502.095V192V191H498.112V192ZM506.077 192V193H510.06V192V191H506.077V192ZM514.043 192V193H518.026V192V191H514.043V192ZM522.009 192V193H524V192V191H522.009V192Z" fill="#E6E9ED" mask="url(#path-9-inside-5_418_4569)"/>
<path d="M6.25195 238.705C6.25195 239.4 6.19922 240.021 6.09375 240.568C5.98828 241.115 5.82227 241.578 5.5957 241.957C5.36914 242.336 5.07617 242.625 4.7168 242.824C4.35742 243.02 3.92578 243.117 3.42188 243.117C2.78516 243.117 2.25781 242.943 1.83984 242.596C1.42578 242.248 1.11523 241.746 0.908203 241.09C0.705078 240.43 0.603516 239.635 0.603516 238.705C0.603516 237.791 0.695312 237.006 0.878906 236.35C1.06641 235.689 1.36719 235.184 1.78125 234.832C2.19531 234.477 2.74219 234.299 3.42188 234.299C4.06641 234.299 4.59766 234.475 5.01562 234.826C5.43359 235.174 5.74414 235.678 5.94727 236.338C6.15039 236.994 6.25195 237.783 6.25195 238.705ZM1.58203 238.705C1.58203 239.502 1.64258 240.166 1.76367 240.697C1.88477 241.229 2.08008 241.627 2.34961 241.893C2.62305 242.154 2.98047 242.285 3.42188 242.285C3.86328 242.285 4.21875 242.154 4.48828 241.893C4.76172 241.631 4.95898 241.234 5.08008 240.703C5.20508 240.172 5.26758 239.506 5.26758 238.705C5.26758 237.92 5.20703 237.264 5.08594 236.736C4.96484 236.205 4.76953 235.807 4.5 235.541C4.23047 235.271 3.87109 235.137 3.42188 235.137C2.97266 235.137 2.61328 235.271 2.34375 235.541C2.07422 235.807 1.87891 236.205 1.75781 236.736C1.64062 237.264 1.58203 237.92 1.58203 238.705ZM15.9902 240.721C15.9902 241.229 15.8633 241.662 15.6094 242.021C15.3594 242.377 15.0078 242.648 14.5547 242.836C14.1016 243.023 13.5684 243.117 12.9551 243.117C12.6309 243.117 12.3242 243.102 12.0352 243.07C11.7461 243.039 11.4805 242.994 11.2383 242.936C10.9961 242.877 10.7832 242.805 10.5996 242.719V241.764C10.8926 241.885 11.25 241.998 11.6719 242.104C12.0938 242.205 12.5352 242.256 12.9961 242.256C13.4258 242.256 13.7891 242.199 14.0859 242.086C14.3828 241.969 14.6074 241.803 14.7598 241.588C14.916 241.369 14.9941 241.107 14.9941 240.803C14.9941 240.51 14.9297 240.266 14.8008 240.07C14.6719 239.871 14.457 239.691 14.1562 239.531C13.8594 239.367 13.4531 239.193 12.9375 239.01C12.5742 238.881 12.2539 238.74 11.9766 238.588C11.6992 238.432 11.4668 238.256 11.2793 238.061C11.0918 237.865 10.9492 237.639 10.8516 237.381C10.7578 237.123 10.7109 236.828 10.7109 236.496C10.7109 236.039 10.8262 235.648 11.0566 235.324C11.291 234.996 11.6133 234.746 12.0234 234.574C12.4375 234.398 12.9121 234.311 13.4473 234.311C13.9043 234.311 14.3262 234.354 14.7129 234.439C15.1035 234.525 15.4609 234.641 15.7852 234.785L15.4746 235.641C15.166 235.512 14.8379 235.404 14.4902 235.318C14.1465 235.232 13.791 235.189 13.4238 235.189C13.0566 235.189 12.7461 235.244 12.4922 235.354C12.2422 235.459 12.0508 235.609 11.918 235.805C11.7852 236 11.7188 236.232 11.7188 236.502C11.7188 236.803 11.7812 237.053 11.9062 237.252C12.0352 237.451 12.2383 237.629 12.5156 237.785C12.7969 237.938 13.168 238.098 13.6289 238.266C14.1328 238.449 14.5605 238.645 14.9121 238.852C15.2637 239.055 15.5312 239.305 15.7148 239.602C15.8984 239.895 15.9902 240.268 15.9902 240.721ZM22.8223 242.988L21.6797 239.25C21.6289 239.09 21.5801 238.934 21.5332 238.781C21.4902 238.625 21.4492 238.477 21.4102 238.336C21.375 238.191 21.3418 238.059 21.3105 237.938C21.2832 237.812 21.2598 237.705 21.2402 237.615H21.1992C21.1836 237.705 21.1621 237.812 21.1348 237.938C21.1074 238.059 21.0742 238.191 21.0352 238.336C21 238.48 20.9609 238.633 20.918 238.793C20.875 238.949 20.8262 239.107 20.7715 239.268L19.5762 242.988H18.4805L16.7109 236.566H17.7188L18.6445 240.111C18.707 240.346 18.7656 240.578 18.8203 240.809C18.8789 241.035 18.9277 241.25 18.9668 241.453C19.0098 241.652 19.041 241.826 19.0605 241.975H19.1074C19.1309 241.877 19.1562 241.76 19.1836 241.623C19.2148 241.486 19.248 241.342 19.2832 241.189C19.3223 241.033 19.3633 240.879 19.4062 240.727C19.4492 240.57 19.4922 240.424 19.5352 240.287L20.7188 236.566H21.7676L22.9102 240.281C22.9688 240.469 23.0254 240.664 23.0801 240.867C23.1387 241.07 23.1914 241.268 23.2383 241.459C23.2852 241.646 23.3184 241.814 23.3379 241.963H23.3848C23.4004 241.83 23.4297 241.666 23.4727 241.471C23.5156 241.275 23.5645 241.061 23.6191 240.826C23.6777 240.592 23.7383 240.354 23.8008 240.111L24.7383 236.566H25.7285L23.9531 242.988H22.8223ZM27.873 236.578V243H26.9004V236.578H27.873ZM27.3984 234.176C27.5586 234.176 27.6953 234.229 27.8086 234.334C27.9258 234.436 27.9844 234.596 27.9844 234.814C27.9844 235.029 27.9258 235.189 27.8086 235.295C27.6953 235.4 27.5586 235.453 27.3984 235.453C27.2305 235.453 27.0898 235.4 26.9766 235.295C26.8672 235.189 26.8125 235.029 26.8125 234.814C26.8125 234.596 26.8672 234.436 26.9766 234.334C27.0898 234.229 27.2305 234.176 27.3984 234.176ZM32.0098 242.32C32.1699 242.32 32.334 242.307 32.502 242.279C32.6699 242.252 32.8066 242.219 32.9121 242.18V242.936C32.7988 242.986 32.6406 243.029 32.4375 243.064C32.2383 243.1 32.043 243.117 31.8516 243.117C31.5117 243.117 31.2031 243.059 30.9258 242.941C30.6484 242.82 30.4258 242.617 30.2578 242.332C30.0938 242.047 30.0117 241.652 30.0117 241.148V237.34H29.0977V236.865L30.0176 236.484L30.4043 235.09H30.9902V236.578H32.8711V237.34H30.9902V241.119C30.9902 241.521 31.082 241.822 31.2656 242.021C31.4531 242.221 31.7012 242.32 32.0098 242.32ZM36.7852 243.117C36.207 243.117 35.6973 242.998 35.2559 242.76C34.8145 242.521 34.4707 242.158 34.2246 241.67C33.9785 241.182 33.8555 240.566 33.8555 239.824C33.8555 239.047 33.9844 238.412 34.2422 237.92C34.5039 237.424 34.8633 237.057 35.3203 236.818C35.7773 236.58 36.2969 236.461 36.8789 236.461C37.1992 236.461 37.5078 236.494 37.8047 236.561C38.1055 236.623 38.3516 236.703 38.543 236.801L38.25 237.615C38.0547 237.537 37.8281 237.467 37.5703 237.404C37.3164 237.342 37.0781 237.311 36.8555 237.311C36.4102 237.311 36.0391 237.406 35.7422 237.598C35.4492 237.789 35.2285 238.07 35.0801 238.441C34.9355 238.812 34.8633 239.27 34.8633 239.812C34.8633 240.332 34.9336 240.775 35.0742 241.143C35.2188 241.51 35.4316 241.791 35.7129 241.986C35.998 242.178 36.3535 242.273 36.7793 242.273C37.1191 242.273 37.4258 242.238 37.6992 242.168C37.9727 242.094 38.2207 242.008 38.4434 241.91V242.777C38.2285 242.887 37.9883 242.971 37.7227 243.029C37.4609 243.088 37.1484 243.117 36.7852 243.117ZM40.9395 233.883V236.607C40.9395 236.764 40.9355 236.922 40.9277 237.082C40.9199 237.238 40.9062 237.383 40.8867 237.516H40.9512C41.084 237.289 41.252 237.1 41.4551 236.947C41.6621 236.791 41.8965 236.674 42.1582 236.596C42.4199 236.514 42.6973 236.473 42.9902 236.473C43.5059 236.473 43.9355 236.555 44.2793 236.719C44.627 236.883 44.8867 237.137 45.0586 237.48C45.2344 237.824 45.3223 238.27 45.3223 238.816V243H44.3613V238.881C44.3613 238.346 44.2383 237.945 43.9922 237.68C43.75 237.414 43.377 237.281 42.873 237.281C42.3965 237.281 42.0156 237.373 41.7305 237.557C41.4492 237.736 41.2461 238.002 41.1211 238.354C41 238.705 40.9395 239.135 40.9395 239.643V243H39.9668V233.883H40.9395Z" fill="#8B8E96"/>
<path d="M3.29883 191.762C3.88086 191.762 4.38672 191.861 4.81641 192.061C5.24609 192.256 5.57812 192.541 5.8125 192.916C6.05078 193.291 6.16992 193.746 6.16992 194.281C6.16992 194.867 6.04297 195.373 5.78906 195.799C5.53516 196.221 5.16992 196.547 4.69336 196.777C4.2168 197.004 3.64648 197.117 2.98242 197.117C2.53711 197.117 2.12305 197.078 1.74023 197C1.35742 196.922 1.03516 196.805 0.773438 196.648V195.723C1.05859 195.895 1.4043 196.031 1.81055 196.133C2.2168 196.234 2.61133 196.285 2.99414 196.285C3.42773 196.285 3.80664 196.217 4.13086 196.08C4.45898 195.939 4.71289 195.729 4.89258 195.447C5.07617 195.162 5.16797 194.805 5.16797 194.375C5.16797 193.805 4.99219 193.365 4.64062 193.057C4.29297 192.744 3.74219 192.588 2.98828 192.588C2.74609 192.588 2.48047 192.607 2.19141 192.646C1.90234 192.686 1.66406 192.729 1.47656 192.775L0.984375 192.453L1.3125 188.434H5.57227V189.324H2.14453L1.92773 191.908C2.07617 191.877 2.26758 191.846 2.50195 191.814C2.73633 191.779 3.00195 191.762 3.29883 191.762ZM15.9902 194.721C15.9902 195.229 15.8633 195.662 15.6094 196.021C15.3594 196.377 15.0078 196.648 14.5547 196.836C14.1016 197.023 13.5684 197.117 12.9551 197.117C12.6309 197.117 12.3242 197.102 12.0352 197.07C11.7461 197.039 11.4805 196.994 11.2383 196.936C10.9961 196.877 10.7832 196.805 10.5996 196.719V195.764C10.8926 195.885 11.25 195.998 11.6719 196.104C12.0938 196.205 12.5352 196.256 12.9961 196.256C13.4258 196.256 13.7891 196.199 14.0859 196.086C14.3828 195.969 14.6074 195.803 14.7598 195.588C14.916 195.369 14.9941 195.107 14.9941 194.803C14.9941 194.51 14.9297 194.266 14.8008 194.07C14.6719 193.871 14.457 193.691 14.1562 193.531C13.8594 193.367 13.4531 193.193 12.9375 193.01C12.5742 192.881 12.2539 192.74 11.9766 192.588C11.6992 192.432 11.4668 192.256 11.2793 192.061C11.0918 191.865 10.9492 191.639 10.8516 191.381C10.7578 191.123 10.7109 190.828 10.7109 190.496C10.7109 190.039 10.8262 189.648 11.0566 189.324C11.291 188.996 11.6133 188.746 12.0234 188.574C12.4375 188.398 12.9121 188.311 13.4473 188.311C13.9043 188.311 14.3262 188.354 14.7129 188.439C15.1035 188.525 15.4609 188.641 15.7852 188.785L15.4746 189.641C15.166 189.512 14.8379 189.404 14.4902 189.318C14.1465 189.232 13.791 189.189 13.4238 189.189C13.0566 189.189 12.7461 189.244 12.4922 189.354C12.2422 189.459 12.0508 189.609 11.918 189.805C11.7852 190 11.7188 190.232 11.7188 190.502C11.7188 190.803 11.7812 191.053 11.9062 191.252C12.0352 191.451 12.2383 191.629 12.5156 191.785C12.7969 191.938 13.168 192.098 13.6289 192.266C14.1328 192.449 14.5605 192.645 14.9121 192.852C15.2637 193.055 15.5312 193.305 15.7148 193.602C15.8984 193.895 15.9902 194.268 15.9902 194.721ZM22.8223 196.988L21.6797 193.25C21.6289 193.09 21.5801 192.934 21.5332 192.781C21.4902 192.625 21.4492 192.477 21.4102 192.336C21.375 192.191 21.3418 192.059 21.3105 191.938C21.2832 191.812 21.2598 191.705 21.2402 191.615H21.1992C21.1836 191.705 21.1621 191.812 21.1348 191.938C21.1074 192.059 21.0742 192.191 21.0352 192.336C21 192.48 20.9609 192.633 20.918 192.793C20.875 192.949 20.8262 193.107 20.7715 193.268L19.5762 196.988H18.4805L16.7109 190.566H17.7188L18.6445 194.111C18.707 194.346 18.7656 194.578 18.8203 194.809C18.8789 195.035 18.9277 195.25 18.9668 195.453C19.0098 195.652 19.041 195.826 19.0605 195.975H19.1074C19.1309 195.877 19.1562 195.76 19.1836 195.623C19.2148 195.486 19.248 195.342 19.2832 195.189C19.3223 195.033 19.3633 194.879 19.4062 194.727C19.4492 194.57 19.4922 194.424 19.5352 194.287L20.7188 190.566H21.7676L22.9102 194.281C22.9688 194.469 23.0254 194.664 23.0801 194.867C23.1387 195.07 23.1914 195.268 23.2383 195.459C23.2852 195.646 23.3184 195.814 23.3379 195.963H23.3848C23.4004 195.83 23.4297 195.666 23.4727 195.471C23.5156 195.275 23.5645 195.061 23.6191 194.826C23.6777 194.592 23.7383 194.354 23.8008 194.111L24.7383 190.566H25.7285L23.9531 196.988H22.8223ZM27.873 190.578V197H26.9004V190.578H27.873ZM27.3984 188.176C27.5586 188.176 27.6953 188.229 27.8086 188.334C27.9258 188.436 27.9844 188.596 27.9844 188.814C27.9844 189.029 27.9258 189.189 27.8086 189.295C27.6953 189.4 27.5586 189.453 27.3984 189.453C27.2305 189.453 27.0898 189.4 26.9766 189.295C26.8672 189.189 26.8125 189.029 26.8125 188.814C26.8125 188.596 26.8672 188.436 26.9766 188.334C27.0898 188.229 27.2305 188.176 27.3984 188.176ZM32.0098 196.32C32.1699 196.32 32.334 196.307 32.502 196.279C32.6699 196.252 32.8066 196.219 32.9121 196.18V196.936C32.7988 196.986 32.6406 197.029 32.4375 197.064C32.2383 197.1 32.043 197.117 31.8516 197.117C31.5117 197.117 31.2031 197.059 30.9258 196.941C30.6484 196.82 30.4258 196.617 30.2578 196.332C30.0938 196.047 30.0117 195.652 30.0117 195.148V191.34H29.0977V190.865L30.0176 190.484L30.4043 189.09H30.9902V190.578H32.8711V191.34H30.9902V195.119C30.9902 195.521 31.082 195.822 31.2656 196.021C31.4531 196.221 31.7012 196.32 32.0098 196.32ZM36.7852 197.117C36.207 197.117 35.6973 196.998 35.2559 196.76C34.8145 196.521 34.4707 196.158 34.2246 195.67C33.9785 195.182 33.8555 194.566 33.8555 193.824C33.8555 193.047 33.9844 192.412 34.2422 191.92C34.5039 191.424 34.8633 191.057 35.3203 190.818C35.7773 190.58 36.2969 190.461 36.8789 190.461C37.1992 190.461 37.5078 190.494 37.8047 190.561C38.1055 190.623 38.3516 190.703 38.543 190.801L38.25 191.615C38.0547 191.537 37.8281 191.467 37.5703 191.404C37.3164 191.342 37.0781 191.311 36.8555 191.311C36.4102 191.311 36.0391 191.406 35.7422 191.598C35.4492 191.789 35.2285 192.07 35.0801 192.441C34.9355 192.812 34.8633 193.27 34.8633 193.812C34.8633 194.332 34.9336 194.775 35.0742 195.143C35.2188 195.51 35.4316 195.791 35.7129 195.986C35.998 196.178 36.3535 196.273 36.7793 196.273C37.1191 196.273 37.4258 196.238 37.6992 196.168C37.9727 196.094 38.2207 196.008 38.4434 195.91V196.777C38.2285 196.887 37.9883 196.971 37.7227 197.029C37.4609 197.088 37.1484 197.117 36.7852 197.117ZM40.9395 187.883V190.607C40.9395 190.764 40.9355 190.922 40.9277 191.082C40.9199 191.238 40.9062 191.383 40.8867 191.516H40.9512C41.084 191.289 41.252 191.1 41.4551 190.947C41.6621 190.791 41.8965 190.674 42.1582 190.596C42.4199 190.514 42.6973 190.473 42.9902 190.473C43.5059 190.473 43.9355 190.555 44.2793 190.719C44.627 190.883 44.8867 191.137 45.0586 191.48C45.2344 191.824 45.3223 192.27 45.3223 192.816V197H44.3613V192.881C44.3613 192.346 44.2383 191.945 43.9922 191.68C43.75 191.414 43.377 191.281 42.873 191.281C42.3965 191.281 42.0156 191.373 41.7305 191.557C41.4492 191.736 41.2461 192.002 41.1211 192.354C41 192.705 40.9395 193.135 40.9395 193.643V197H39.9668V187.883H40.9395Z" fill="#8B8E96"/>
<path d="M4.21289 151H3.26367V144.93C3.26367 144.699 3.26367 144.502 3.26367 144.338C3.26758 144.17 3.27148 144.018 3.27539 143.881C3.2832 143.74 3.29297 143.598 3.30469 143.453C3.18359 143.578 3.07031 143.686 2.96484 143.775C2.85938 143.861 2.72852 143.969 2.57227 144.098L1.59375 144.883L1.08398 144.221L3.4043 142.434H4.21289V151ZM13.1191 146.705C13.1191 147.4 13.0664 148.021 12.9609 148.568C12.8555 149.115 12.6895 149.578 12.4629 149.957C12.2363 150.336 11.9434 150.625 11.584 150.824C11.2246 151.02 10.793 151.117 10.2891 151.117C9.65234 151.117 9.125 150.943 8.70703 150.596C8.29297 150.248 7.98242 149.746 7.77539 149.09C7.57227 148.43 7.4707 147.635 7.4707 146.705C7.4707 145.791 7.5625 145.006 7.74609 144.35C7.93359 143.689 8.23438 143.184 8.64844 142.832C9.0625 142.477 9.60938 142.299 10.2891 142.299C10.9336 142.299 11.4648 142.475 11.8828 142.826C12.3008 143.174 12.6113 143.678 12.8145 144.338C13.0176 144.994 13.1191 145.783 13.1191 146.705ZM8.44922 146.705C8.44922 147.502 8.50977 148.166 8.63086 148.697C8.75195 149.229 8.94727 149.627 9.2168 149.893C9.49023 150.154 9.84766 150.285 10.2891 150.285C10.7305 150.285 11.0859 150.154 11.3555 149.893C11.6289 149.631 11.8262 149.234 11.9473 148.703C12.0723 148.172 12.1348 147.506 12.1348 146.705C12.1348 145.92 12.0742 145.264 11.9531 144.736C11.832 144.205 11.6367 143.807 11.3672 143.541C11.0977 143.271 10.7383 143.137 10.2891 143.137C9.83984 143.137 9.48047 143.271 9.21094 143.541C8.94141 143.807 8.74609 144.205 8.625 144.736C8.50781 145.264 8.44922 145.92 8.44922 146.705ZM22.8574 148.721C22.8574 149.229 22.7305 149.662 22.4766 150.021C22.2266 150.377 21.875 150.648 21.4219 150.836C20.9688 151.023 20.4355 151.117 19.8223 151.117C19.498 151.117 19.1914 151.102 18.9023 151.07C18.6133 151.039 18.3477 150.994 18.1055 150.936C17.8633 150.877 17.6504 150.805 17.4668 150.719V149.764C17.7598 149.885 18.1172 149.998 18.5391 150.104C18.9609 150.205 19.4023 150.256 19.8633 150.256C20.293 150.256 20.6562 150.199 20.9531 150.086C21.25 149.969 21.4746 149.803 21.627 149.588C21.7832 149.369 21.8613 149.107 21.8613 148.803C21.8613 148.51 21.7969 148.266 21.668 148.07C21.5391 147.871 21.3242 147.691 21.0234 147.531C20.7266 147.367 20.3203 147.193 19.8047 147.01C19.4414 146.881 19.1211 146.74 18.8438 146.588C18.5664 146.432 18.334 146.256 18.1465 146.061C17.959 145.865 17.8164 145.639 17.7188 145.381C17.625 145.123 17.5781 144.828 17.5781 144.496C17.5781 144.039 17.6934 143.648 17.9238 143.324C18.1582 142.996 18.4805 142.746 18.8906 142.574C19.3047 142.398 19.7793 142.311 20.3145 142.311C20.7715 142.311 21.1934 142.354 21.5801 142.439C21.9707 142.525 22.3281 142.641 22.6523 142.785L22.3418 143.641C22.0332 143.512 21.7051 143.404 21.3574 143.318C21.0137 143.232 20.6582 143.189 20.291 143.189C19.9238 143.189 19.6133 143.244 19.3594 143.354C19.1094 143.459 18.918 143.609 18.7852 143.805C18.6523 144 18.5859 144.232 18.5859 144.502C18.5859 144.803 18.6484 145.053 18.7734 145.252C18.9023 145.451 19.1055 145.629 19.3828 145.785C19.6641 145.938 20.0352 146.098 20.4961 146.266C21 146.449 21.4277 146.645 21.7793 146.852C22.1309 147.055 22.3984 147.305 22.582 147.602C22.7656 147.895 22.8574 148.268 22.8574 148.721ZM29.6895 150.988L28.5469 147.25C28.4961 147.09 28.4473 146.934 28.4004 146.781C28.3574 146.625 28.3164 146.477 28.2773 146.336C28.2422 146.191 28.209 146.059 28.1777 145.938C28.1504 145.812 28.127 145.705 28.1074 145.615H28.0664C28.0508 145.705 28.0293 145.812 28.002 145.938C27.9746 146.059 27.9414 146.191 27.9023 146.336C27.8672 146.48 27.8281 146.633 27.7852 146.793C27.7422 146.949 27.6934 147.107 27.6387 147.268L26.4434 150.988H25.3477L23.5781 144.566H24.5859L25.5117 148.111C25.5742 148.346 25.6328 148.578 25.6875 148.809C25.7461 149.035 25.7949 149.25 25.834 149.453C25.877 149.652 25.9082 149.826 25.9277 149.975H25.9746C25.998 149.877 26.0234 149.76 26.0508 149.623C26.082 149.486 26.1152 149.342 26.1504 149.189C26.1895 149.033 26.2305 148.879 26.2734 148.727C26.3164 148.57 26.3594 148.424 26.4023 148.287L27.5859 144.566H28.6348L29.7773 148.281C29.8359 148.469 29.8926 148.664 29.9473 148.867C30.0059 149.07 30.0586 149.268 30.1055 149.459C30.1523 149.646 30.1855 149.814 30.2051 149.963H30.252C30.2676 149.83 30.2969 149.666 30.3398 149.471C30.3828 149.275 30.4316 149.061 30.4863 148.826C30.5449 148.592 30.6055 148.354 30.668 148.111L31.6055 144.566H32.5957L30.8203 150.988H29.6895ZM34.7402 144.578V151H33.7676V144.578H34.7402ZM34.2656 142.176C34.4258 142.176 34.5625 142.229 34.6758 142.334C34.793 142.436 34.8516 142.596 34.8516 142.814C34.8516 143.029 34.793 143.189 34.6758 143.295C34.5625 143.4 34.4258 143.453 34.2656 143.453C34.0977 143.453 33.957 143.4 33.8438 143.295C33.7344 143.189 33.6797 143.029 33.6797 142.814C33.6797 142.596 33.7344 142.436 33.8438 142.334C33.957 142.229 34.0977 142.176 34.2656 142.176ZM38.877 150.32C39.0371 150.32 39.2012 150.307 39.3691 150.279C39.5371 150.252 39.6738 150.219 39.7793 150.18V150.936C39.666 150.986 39.5078 151.029 39.3047 151.064C39.1055 151.1 38.9102 151.117 38.7188 151.117C38.3789 151.117 38.0703 151.059 37.793 150.941C37.5156 150.82 37.293 150.617 37.125 150.332C36.9609 150.047 36.8789 149.652 36.8789 149.148V145.34H35.9648V144.865L36.8848 144.484L37.2715 143.09H37.8574V144.578H39.7383V145.34H37.8574V149.119C37.8574 149.521 37.9492 149.822 38.1328 150.021C38.3203 150.221 38.5684 150.32 38.877 150.32ZM43.6523 151.117C43.0742 151.117 42.5645 150.998 42.123 150.76C41.6816 150.521 41.3379 150.158 41.0918 149.67C40.8457 149.182 40.7227 148.566 40.7227 147.824C40.7227 147.047 40.8516 146.412 41.1094 145.92C41.3711 145.424 41.7305 145.057 42.1875 144.818C42.6445 144.58 43.1641 144.461 43.7461 144.461C44.0664 144.461 44.375 144.494 44.6719 144.561C44.9727 144.623 45.2188 144.703 45.4102 144.801L45.1172 145.615C44.9219 145.537 44.6953 145.467 44.4375 145.404C44.1836 145.342 43.9453 145.311 43.7227 145.311C43.2773 145.311 42.9062 145.406 42.6094 145.598C42.3164 145.789 42.0957 146.07 41.9473 146.441C41.8027 146.812 41.7305 147.27 41.7305 147.812C41.7305 148.332 41.8008 148.775 41.9414 149.143C42.0859 149.51 42.2988 149.791 42.5801 149.986C42.8652 150.178 43.2207 150.273 43.6465 150.273C43.9863 150.273 44.293 150.238 44.5664 150.168C44.8398 150.094 45.0879 150.008 45.3105 149.91V150.777C45.0957 150.887 44.8555 150.971 44.5898 151.029C44.3281 151.088 44.0156 151.117 43.6523 151.117ZM47.8066 141.883V144.607C47.8066 144.764 47.8027 144.922 47.7949 145.082C47.7871 145.238 47.7734 145.383 47.7539 145.516H47.8184C47.9512 145.289 48.1191 145.1 48.3223 144.947C48.5293 144.791 48.7637 144.674 49.0254 144.596C49.2871 144.514 49.5645 144.473 49.8574 144.473C50.373 144.473 50.8027 144.555 51.1465 144.719C51.4941 144.883 51.7539 145.137 51.9258 145.48C52.1016 145.824 52.1895 146.27 52.1895 146.816V151H51.2285V146.881C51.2285 146.346 51.1055 145.945 50.8594 145.68C50.6172 145.414 50.2441 145.281 49.7402 145.281C49.2637 145.281 48.8828 145.373 48.5977 145.557C48.3164 145.736 48.1133 146.002 47.9883 146.354C47.8672 146.705 47.8066 147.135 47.8066 147.643V151H46.834V141.883H47.8066Z" fill="#8B8E96"/>
<path d="M4.21289 105H3.26367V98.9297C3.26367 98.6992 3.26367 98.502 3.26367 98.3379C3.26758 98.1699 3.27148 98.0176 3.27539 97.8809C3.2832 97.7402 3.29297 97.5977 3.30469 97.4531C3.18359 97.5781 3.07031 97.6855 2.96484 97.7754C2.85938 97.8613 2.72852 97.9688 2.57227 98.0977L1.59375 98.8828L1.08398 98.2207L3.4043 96.4336H4.21289V105ZM10.166 99.7617C10.748 99.7617 11.2539 99.8613 11.6836 100.061C12.1133 100.256 12.4453 100.541 12.6797 100.916C12.918 101.291 13.0371 101.746 13.0371 102.281C13.0371 102.867 12.9102 103.373 12.6562 103.799C12.4023 104.221 12.0371 104.547 11.5605 104.777C11.084 105.004 10.5137 105.117 9.84961 105.117C9.4043 105.117 8.99023 105.078 8.60742 105C8.22461 104.922 7.90234 104.805 7.64062 104.648V103.723C7.92578 103.895 8.27148 104.031 8.67773 104.133C9.08398 104.234 9.47852 104.285 9.86133 104.285C10.2949 104.285 10.6738 104.217 10.998 104.08C11.3262 103.939 11.5801 103.729 11.7598 103.447C11.9434 103.162 12.0352 102.805 12.0352 102.375C12.0352 101.805 11.8594 101.365 11.5078 101.057C11.1602 100.744 10.6094 100.588 9.85547 100.588C9.61328 100.588 9.34766 100.607 9.05859 100.646C8.76953 100.686 8.53125 100.729 8.34375 100.775L7.85156 100.453L8.17969 96.4336H12.4395V97.3242H9.01172L8.79492 99.9082C8.94336 99.877 9.13477 99.8457 9.36914 99.8145C9.60352 99.7793 9.86914 99.7617 10.166 99.7617ZM22.8574 102.721C22.8574 103.229 22.7305 103.662 22.4766 104.021C22.2266 104.377 21.875 104.648 21.4219 104.836C20.9688 105.023 20.4355 105.117 19.8223 105.117C19.498 105.117 19.1914 105.102 18.9023 105.07C18.6133 105.039 18.3477 104.994 18.1055 104.936C17.8633 104.877 17.6504 104.805 17.4668 104.719V103.764C17.7598 103.885 18.1172 103.998 18.5391 104.104C18.9609 104.205 19.4023 104.256 19.8633 104.256C20.293 104.256 20.6562 104.199 20.9531 104.086C21.25 103.969 21.4746 103.803 21.627 103.588C21.7832 103.369 21.8613 103.107 21.8613 102.803C21.8613 102.51 21.7969 102.266 21.668 102.07C21.5391 101.871 21.3242 101.691 21.0234 101.531C20.7266 101.367 20.3203 101.193 19.8047 101.01C19.4414 100.881 19.1211 100.74 18.8438 100.588C18.5664 100.432 18.334 100.256 18.1465 100.061C17.959 99.8652 17.8164 99.6387 17.7188 99.3809C17.625 99.123 17.5781 98.8281 17.5781 98.4961C17.5781 98.0391 17.6934 97.6484 17.9238 97.3242C18.1582 96.9961 18.4805 96.7461 18.8906 96.5742C19.3047 96.3984 19.7793 96.3105 20.3145 96.3105C20.7715 96.3105 21.1934 96.3535 21.5801 96.4395C21.9707 96.5254 22.3281 96.6406 22.6523 96.7852L22.3418 97.6406C22.0332 97.5117 21.7051 97.4043 21.3574 97.3184C21.0137 97.2324 20.6582 97.1895 20.291 97.1895C19.9238 97.1895 19.6133 97.2441 19.3594 97.3535C19.1094 97.459 18.918 97.6094 18.7852 97.8047C18.6523 98 18.5859 98.2324 18.5859 98.502C18.5859 98.8027 18.6484 99.0527 18.7734 99.252C18.9023 99.4512 19.1055 99.6289 19.3828 99.7852C19.6641 99.9375 20.0352 100.098 20.4961 100.266C21 100.449 21.4277 100.645 21.7793 100.852C22.1309 101.055 22.3984 101.305 22.582 101.602C22.7656 101.895 22.8574 102.268 22.8574 102.721ZM29.6895 104.988L28.5469 101.25C28.4961 101.09 28.4473 100.934 28.4004 100.781C28.3574 100.625 28.3164 100.477 28.2773 100.336C28.2422 100.191 28.209 100.059 28.1777 99.9375C28.1504 99.8125 28.127 99.7051 28.1074 99.6152H28.0664C28.0508 99.7051 28.0293 99.8125 28.002 99.9375C27.9746 100.059 27.9414 100.191 27.9023 100.336C27.8672 100.48 27.8281 100.633 27.7852 100.793C27.7422 100.949 27.6934 101.107 27.6387 101.268L26.4434 104.988H25.3477L23.5781 98.5664H24.5859L25.5117 102.111C25.5742 102.346 25.6328 102.578 25.6875 102.809C25.7461 103.035 25.7949 103.25 25.834 103.453C25.877 103.652 25.9082 103.826 25.9277 103.975H25.9746C25.998 103.877 26.0234 103.76 26.0508 103.623C26.082 103.486 26.1152 103.342 26.1504 103.189C26.1895 103.033 26.2305 102.879 26.2734 102.727C26.3164 102.57 26.3594 102.424 26.4023 102.287L27.5859 98.5664H28.6348L29.7773 102.281C29.8359 102.469 29.8926 102.664 29.9473 102.867C30.0059 103.07 30.0586 103.268 30.1055 103.459C30.1523 103.646 30.1855 103.814 30.2051 103.963H30.252C30.2676 103.83 30.2969 103.666 30.3398 103.471C30.3828 103.275 30.4316 103.061 30.4863 102.826C30.5449 102.592 30.6055 102.354 30.668 102.111L31.6055 98.5664H32.5957L30.8203 104.988H29.6895ZM34.7402 98.5781V105H33.7676V98.5781H34.7402ZM34.2656 96.1758C34.4258 96.1758 34.5625 96.2285 34.6758 96.334C34.793 96.4355 34.8516 96.5957 34.8516 96.8145C34.8516 97.0293 34.793 97.1895 34.6758 97.2949C34.5625 97.4004 34.4258 97.4531 34.2656 97.4531C34.0977 97.4531 33.957 97.4004 33.8438 97.2949C33.7344 97.1895 33.6797 97.0293 33.6797 96.8145C33.6797 96.5957 33.7344 96.4355 33.8438 96.334C33.957 96.2285 34.0977 96.1758 34.2656 96.1758ZM38.877 104.32C39.0371 104.32 39.2012 104.307 39.3691 104.279C39.5371 104.252 39.6738 104.219 39.7793 104.18V104.936C39.666 104.986 39.5078 105.029 39.3047 105.064C39.1055 105.1 38.9102 105.117 38.7188 105.117C38.3789 105.117 38.0703 105.059 37.793 104.941C37.5156 104.82 37.293 104.617 37.125 104.332C36.9609 104.047 36.8789 103.652 36.8789 103.148V99.3398H35.9648V98.8652L36.8848 98.4844L37.2715 97.0898H37.8574V98.5781H39.7383V99.3398H37.8574V103.119C37.8574 103.521 37.9492 103.822 38.1328 104.021C38.3203 104.221 38.5684 104.32 38.877 104.32ZM43.6523 105.117C43.0742 105.117 42.5645 104.998 42.123 104.76C41.6816 104.521 41.3379 104.158 41.0918 103.67C40.8457 103.182 40.7227 102.566 40.7227 101.824C40.7227 101.047 40.8516 100.412 41.1094 99.9199C41.3711 99.4238 41.7305 99.0566 42.1875 98.8184C42.6445 98.5801 43.1641 98.4609 43.7461 98.4609C44.0664 98.4609 44.375 98.4941 44.6719 98.5605C44.9727 98.623 45.2188 98.7031 45.4102 98.8008L45.1172 99.6152C44.9219 99.5371 44.6953 99.4668 44.4375 99.4043C44.1836 99.3418 43.9453 99.3105 43.7227 99.3105C43.2773 99.3105 42.9062 99.4062 42.6094 99.5977C42.3164 99.7891 42.0957 100.07 41.9473 100.441C41.8027 100.812 41.7305 101.27 41.7305 101.812C41.7305 102.332 41.8008 102.775 41.9414 103.143C42.0859 103.51 42.2988 103.791 42.5801 103.986C42.8652 104.178 43.2207 104.273 43.6465 104.273C43.9863 104.273 44.293 104.238 44.5664 104.168C44.8398 104.094 45.0879 104.008 45.3105 103.91V104.777C45.0957 104.887 44.8555 104.971 44.5898 105.029C44.3281 105.088 44.0156 105.117 43.6523 105.117ZM47.8066 95.8828V98.6074C47.8066 98.7637 47.8027 98.9219 47.7949 99.082C47.7871 99.2383 47.7734 99.3828 47.7539 99.5156H47.8184C47.9512 99.2891 48.1191 99.0996 48.3223 98.9473C48.5293 98.791 48.7637 98.6738 49.0254 98.5957C49.2871 98.5137 49.5645 98.4727 49.8574 98.4727C50.373 98.4727 50.8027 98.5547 51.1465 98.7188C51.4941 98.8828 51.7539 99.1367 51.9258 99.4805C52.1016 99.8242 52.1895 100.27 52.1895 100.816V105H51.2285V100.881C51.2285 100.346 51.1055 99.9453 50.8594 99.6797C50.6172 99.4141 50.2441 99.2812 49.7402 99.2812C49.2637 99.2812 48.8828 99.373 48.5977 99.5566C48.3164 99.7363 48.1133 100.002 47.9883 100.354C47.8672 100.705 47.8066 101.135 47.8066 101.643V105H46.834V95.8828H47.8066Z" fill="#8B8E96"/>
<path d="M6.20508 59H0.591797V58.1855L2.88281 55.8594C3.30859 55.4297 3.66602 55.0469 3.95508 54.7109C4.24805 54.375 4.4707 54.0449 4.62305 53.7207C4.77539 53.3926 4.85156 53.0332 4.85156 52.6426C4.85156 52.1582 4.70703 51.7891 4.41797 51.5352C4.13281 51.2773 3.75586 51.1484 3.28711 51.1484C2.87695 51.1484 2.51367 51.2188 2.19727 51.3594C1.88086 51.5 1.55664 51.6992 1.22461 51.957L0.703125 51.3008C0.929688 51.1094 1.17578 50.9395 1.44141 50.791C1.71094 50.6426 1.99805 50.5254 2.30273 50.4395C2.61133 50.3535 2.93945 50.3105 3.28711 50.3105C3.81445 50.3105 4.26953 50.4023 4.65234 50.5859C5.03516 50.7695 5.33008 51.0312 5.53711 51.3711C5.74805 51.7109 5.85352 52.1152 5.85352 52.584C5.85352 53.0371 5.76367 53.459 5.58398 53.8496C5.4043 54.2363 5.15234 54.6211 4.82812 55.0039C4.50391 55.3828 4.125 55.7852 3.69141 56.2109L1.82812 58.0684V58.1094H6.20508V59ZM13.1191 54.7051C13.1191 55.4004 13.0664 56.0215 12.9609 56.5684C12.8555 57.1152 12.6895 57.5781 12.4629 57.957C12.2363 58.3359 11.9434 58.625 11.584 58.8242C11.2246 59.0195 10.793 59.1172 10.2891 59.1172C9.65234 59.1172 9.125 58.9434 8.70703 58.5957C8.29297 58.248 7.98242 57.7461 7.77539 57.0898C7.57227 56.4297 7.4707 55.6348 7.4707 54.7051C7.4707 53.791 7.5625 53.0059 7.74609 52.3496C7.93359 51.6895 8.23438 51.1836 8.64844 50.832C9.0625 50.4766 9.60938 50.2988 10.2891 50.2988C10.9336 50.2988 11.4648 50.4746 11.8828 50.8262C12.3008 51.1738 12.6113 51.6777 12.8145 52.3379C13.0176 52.9941 13.1191 53.7832 13.1191 54.7051ZM8.44922 54.7051C8.44922 55.502 8.50977 56.166 8.63086 56.6973C8.75195 57.2285 8.94727 57.627 9.2168 57.8926C9.49023 58.1543 9.84766 58.2852 10.2891 58.2852C10.7305 58.2852 11.0859 58.1543 11.3555 57.8926C11.6289 57.6309 11.8262 57.2344 11.9473 56.7031C12.0723 56.1719 12.1348 55.5059 12.1348 54.7051C12.1348 53.9199 12.0742 53.2637 11.9531 52.7363C11.832 52.2051 11.6367 51.8066 11.3672 51.541C11.0977 51.2715 10.7383 51.1367 10.2891 51.1367C9.83984 51.1367 9.48047 51.2715 9.21094 51.541C8.94141 51.8066 8.74609 52.2051 8.625 52.7363C8.50781 53.2637 8.44922 53.9199 8.44922 54.7051ZM22.8574 56.7207C22.8574 57.2285 22.7305 57.6621 22.4766 58.0215C22.2266 58.377 21.875 58.6484 21.4219 58.8359C20.9688 59.0234 20.4355 59.1172 19.8223 59.1172C19.498 59.1172 19.1914 59.1016 18.9023 59.0703C18.6133 59.0391 18.3477 58.9941 18.1055 58.9355C17.8633 58.877 17.6504 58.8047 17.4668 58.7188V57.7637C17.7598 57.8848 18.1172 57.998 18.5391 58.1035C18.9609 58.2051 19.4023 58.2559 19.8633 58.2559C20.293 58.2559 20.6562 58.1992 20.9531 58.0859C21.25 57.9688 21.4746 57.8027 21.627 57.5879C21.7832 57.3691 21.8613 57.1074 21.8613 56.8027C21.8613 56.5098 21.7969 56.2656 21.668 56.0703C21.5391 55.8711 21.3242 55.6914 21.0234 55.5312C20.7266 55.3672 20.3203 55.1934 19.8047 55.0098C19.4414 54.8809 19.1211 54.7402 18.8438 54.5879C18.5664 54.4316 18.334 54.2559 18.1465 54.0605C17.959 53.8652 17.8164 53.6387 17.7188 53.3809C17.625 53.123 17.5781 52.8281 17.5781 52.4961C17.5781 52.0391 17.6934 51.6484 17.9238 51.3242C18.1582 50.9961 18.4805 50.7461 18.8906 50.5742C19.3047 50.3984 19.7793 50.3105 20.3145 50.3105C20.7715 50.3105 21.1934 50.3535 21.5801 50.4395C21.9707 50.5254 22.3281 50.6406 22.6523 50.7852L22.3418 51.6406C22.0332 51.5117 21.7051 51.4043 21.3574 51.3184C21.0137 51.2324 20.6582 51.1895 20.291 51.1895C19.9238 51.1895 19.6133 51.2441 19.3594 51.3535C19.1094 51.459 18.918 51.6094 18.7852 51.8047C18.6523 52 18.5859 52.2324 18.5859 52.502C18.5859 52.8027 18.6484 53.0527 18.7734 53.252C18.9023 53.4512 19.1055 53.6289 19.3828 53.7852C19.6641 53.9375 20.0352 54.0977 20.4961 54.2656C21 54.4492 21.4277 54.6445 21.7793 54.8516C22.1309 55.0547 22.3984 55.3047 22.582 55.6016C22.7656 55.8945 22.8574 56.2676 22.8574 56.7207ZM29.6895 58.9883L28.5469 55.25C28.4961 55.0898 28.4473 54.9336 28.4004 54.7812C28.3574 54.625 28.3164 54.4766 28.2773 54.3359C28.2422 54.1914 28.209 54.0586 28.1777 53.9375C28.1504 53.8125 28.127 53.7051 28.1074 53.6152H28.0664C28.0508 53.7051 28.0293 53.8125 28.002 53.9375C27.9746 54.0586 27.9414 54.1914 27.9023 54.3359C27.8672 54.4805 27.8281 54.6328 27.7852 54.793C27.7422 54.9492 27.6934 55.1074 27.6387 55.2676L26.4434 58.9883H25.3477L23.5781 52.5664H24.5859L25.5117 56.1113C25.5742 56.3457 25.6328 56.5781 25.6875 56.8086C25.7461 57.0352 25.7949 57.25 25.834 57.4531C25.877 57.6523 25.9082 57.8262 25.9277 57.9746H25.9746C25.998 57.877 26.0234 57.7598 26.0508 57.623C26.082 57.4863 26.1152 57.3418 26.1504 57.1895C26.1895 57.0332 26.2305 56.8789 26.2734 56.7266C26.3164 56.5703 26.3594 56.4238 26.4023 56.2871L27.5859 52.5664H28.6348L29.7773 56.2812C29.8359 56.4688 29.8926 56.6641 29.9473 56.8672C30.0059 57.0703 30.0586 57.2676 30.1055 57.459C30.1523 57.6465 30.1855 57.8145 30.2051 57.9629H30.252C30.2676 57.8301 30.2969 57.666 30.3398 57.4707C30.3828 57.2754 30.4316 57.0605 30.4863 56.8262C30.5449 56.5918 30.6055 56.3535 30.668 56.1113L31.6055 52.5664H32.5957L30.8203 58.9883H29.6895ZM34.7402 52.5781V59H33.7676V52.5781H34.7402ZM34.2656 50.1758C34.4258 50.1758 34.5625 50.2285 34.6758 50.334C34.793 50.4355 34.8516 50.5957 34.8516 50.8145C34.8516 51.0293 34.793 51.1895 34.6758 51.2949C34.5625 51.4004 34.4258 51.4531 34.2656 51.4531C34.0977 51.4531 33.957 51.4004 33.8438 51.2949C33.7344 51.1895 33.6797 51.0293 33.6797 50.8145C33.6797 50.5957 33.7344 50.4355 33.8438 50.334C33.957 50.2285 34.0977 50.1758 34.2656 50.1758ZM38.877 58.3203C39.0371 58.3203 39.2012 58.3066 39.3691 58.2793C39.5371 58.252 39.6738 58.2188 39.7793 58.1797V58.9355C39.666 58.9863 39.5078 59.0293 39.3047 59.0645C39.1055 59.0996 38.9102 59.1172 38.7188 59.1172C38.3789 59.1172 38.0703 59.0586 37.793 58.9414C37.5156 58.8203 37.293 58.6172 37.125 58.332C36.9609 58.0469 36.8789 57.6523 36.8789 57.1484V53.3398H35.9648V52.8652L36.8848 52.4844L37.2715 51.0898H37.8574V52.5781H39.7383V53.3398H37.8574V57.1191C37.8574 57.5215 37.9492 57.8223 38.1328 58.0215C38.3203 58.2207 38.5684 58.3203 38.877 58.3203ZM43.6523 59.1172C43.0742 59.1172 42.5645 58.998 42.123 58.7598C41.6816 58.5215 41.3379 58.1582 41.0918 57.6699C40.8457 57.1816 40.7227 56.5664 40.7227 55.8242C40.7227 55.0469 40.8516 54.4121 41.1094 53.9199C41.3711 53.4238 41.7305 53.0566 42.1875 52.8184C42.6445 52.5801 43.1641 52.4609 43.7461 52.4609C44.0664 52.4609 44.375 52.4941 44.6719 52.5605C44.9727 52.623 45.2188 52.7031 45.4102 52.8008L45.1172 53.6152C44.9219 53.5371 44.6953 53.4668 44.4375 53.4043C44.1836 53.3418 43.9453 53.3105 43.7227 53.3105C43.2773 53.3105 42.9062 53.4062 42.6094 53.5977C42.3164 53.7891 42.0957 54.0703 41.9473 54.4414C41.8027 54.8125 41.7305 55.2695 41.7305 55.8125C41.7305 56.332 41.8008 56.7754 41.9414 57.1426C42.0859 57.5098 42.2988 57.791 42.5801 57.9863C42.8652 58.1777 43.2207 58.2734 43.6465 58.2734C43.9863 58.2734 44.293 58.2383 44.5664 58.168C44.8398 58.0938 45.0879 58.0078 45.3105 57.9102V58.7773C45.0957 58.8867 44.8555 58.9707 44.5898 59.0293C44.3281 59.0879 44.0156 59.1172 43.6523 59.1172ZM47.8066 49.8828V52.6074C47.8066 52.7637 47.8027 52.9219 47.7949 53.082C47.7871 53.2383 47.7734 53.3828 47.7539 53.5156H47.8184C47.9512 53.2891 48.1191 53.0996 48.3223 52.9473C48.5293 52.791 48.7637 52.6738 49.0254 52.5957C49.2871 52.5137 49.5645 52.4727 49.8574 52.4727C50.373 52.4727 50.8027 52.5547 51.1465 52.7188C51.4941 52.8828 51.7539 53.1367 51.9258 53.4805C52.1016 53.8242 52.1895 54.2695 52.1895 54.8164V59H51.2285V54.8809C51.2285 54.3457 51.1055 53.9453 50.8594 53.6797C50.6172 53.4141 50.2441 53.2812 49.7402 53.2812C49.2637 53.2812 48.8828 53.373 48.5977 53.5566C48.3164 53.7363 48.1133 54.002 47.9883 54.3535C47.8672 54.7051 47.8066 55.1348 47.8066 55.6426V59H46.834V49.8828H47.8066Z" fill="#8B8E96"/>
<path d="M6.20508 13H0.591797V12.1855L2.88281 9.85938C3.30859 9.42969 3.66602 9.04688 3.95508 8.71094C4.24805 8.375 4.4707 8.04492 4.62305 7.7207C4.77539 7.39258 4.85156 7.0332 4.85156 6.64258C4.85156 6.1582 4.70703 5.78906 4.41797 5.53516C4.13281 5.27734 3.75586 5.14844 3.28711 5.14844C2.87695 5.14844 2.51367 5.21875 2.19727 5.35938C1.88086 5.5 1.55664 5.69922 1.22461 5.95703L0.703125 5.30078C0.929688 5.10938 1.17578 4.93945 1.44141 4.79102C1.71094 4.64258 1.99805 4.52539 2.30273 4.43945C2.61133 4.35352 2.93945 4.31055 3.28711 4.31055C3.81445 4.31055 4.26953 4.40234 4.65234 4.58594C5.03516 4.76953 5.33008 5.03125 5.53711 5.37109C5.74805 5.71094 5.85352 6.11523 5.85352 6.58398C5.85352 7.03711 5.76367 7.45898 5.58398 7.84961C5.4043 8.23633 5.15234 8.62109 4.82812 9.00391C4.50391 9.38281 4.125 9.78516 3.69141 10.2109L1.82812 12.0684V12.1094H6.20508V13ZM10.166 7.76172C10.748 7.76172 11.2539 7.86133 11.6836 8.06055C12.1133 8.25586 12.4453 8.54102 12.6797 8.91602C12.918 9.29102 13.0371 9.74609 13.0371 10.2812C13.0371 10.8672 12.9102 11.373 12.6562 11.7988C12.4023 12.2207 12.0371 12.5469 11.5605 12.7773C11.084 13.0039 10.5137 13.1172 9.84961 13.1172C9.4043 13.1172 8.99023 13.0781 8.60742 13C8.22461 12.9219 7.90234 12.8047 7.64062 12.6484V11.7227C7.92578 11.8945 8.27148 12.0312 8.67773 12.1328C9.08398 12.2344 9.47852 12.2852 9.86133 12.2852C10.2949 12.2852 10.6738 12.2168 10.998 12.0801C11.3262 11.9395 11.5801 11.7285 11.7598 11.4473C11.9434 11.1621 12.0352 10.8047 12.0352 10.375C12.0352 9.80469 11.8594 9.36523 11.5078 9.05664C11.1602 8.74414 10.6094 8.58789 9.85547 8.58789C9.61328 8.58789 9.34766 8.60742 9.05859 8.64648C8.76953 8.68555 8.53125 8.72852 8.34375 8.77539L7.85156 8.45312L8.17969 4.43359H12.4395V5.32422H9.01172L8.79492 7.9082C8.94336 7.87695 9.13477 7.8457 9.36914 7.81445C9.60352 7.7793 9.86914 7.76172 10.166 7.76172ZM22.8574 10.7207C22.8574 11.2285 22.7305 11.6621 22.4766 12.0215C22.2266 12.377 21.875 12.6484 21.4219 12.8359C20.9688 13.0234 20.4355 13.1172 19.8223 13.1172C19.498 13.1172 19.1914 13.1016 18.9023 13.0703C18.6133 13.0391 18.3477 12.9941 18.1055 12.9355C17.8633 12.877 17.6504 12.8047 17.4668 12.7188V11.7637C17.7598 11.8848 18.1172 11.998 18.5391 12.1035C18.9609 12.2051 19.4023 12.2559 19.8633 12.2559C20.293 12.2559 20.6562 12.1992 20.9531 12.0859C21.25 11.9688 21.4746 11.8027 21.627 11.5879C21.7832 11.3691 21.8613 11.1074 21.8613 10.8027C21.8613 10.5098 21.7969 10.2656 21.668 10.0703C21.5391 9.87109 21.3242 9.69141 21.0234 9.53125C20.7266 9.36719 20.3203 9.19336 19.8047 9.00977C19.4414 8.88086 19.1211 8.74023 18.8438 8.58789C18.5664 8.43164 18.334 8.25586 18.1465 8.06055C17.959 7.86523 17.8164 7.63867 17.7188 7.38086C17.625 7.12305 17.5781 6.82812 17.5781 6.49609C17.5781 6.03906 17.6934 5.64844 17.9238 5.32422C18.1582 4.99609 18.4805 4.74609 18.8906 4.57422C19.3047 4.39844 19.7793 4.31055 20.3145 4.31055C20.7715 4.31055 21.1934 4.35352 21.5801 4.43945C21.9707 4.52539 22.3281 4.64062 22.6523 4.78516L22.3418 5.64062C22.0332 5.51172 21.7051 5.4043 21.3574 5.31836C21.0137 5.23242 20.6582 5.18945 20.291 5.18945C19.9238 5.18945 19.6133 5.24414 19.3594 5.35352C19.1094 5.45898 18.918 5.60938 18.7852 5.80469C18.6523 6 18.5859 6.23242 18.5859 6.50195C18.5859 6.80273 18.6484 7.05273 18.7734 7.25195C18.9023 7.45117 19.1055 7.62891 19.3828 7.78516C19.6641 7.9375 20.0352 8.09766 20.4961 8.26562C21 8.44922 21.4277 8.64453 21.7793 8.85156C22.1309 9.05469 22.3984 9.30469 22.582 9.60156C22.7656 9.89453 22.8574 10.2676 22.8574 10.7207ZM29.6895 12.9883L28.5469 9.25C28.4961 9.08984 28.4473 8.93359 28.4004 8.78125C28.3574 8.625 28.3164 8.47656 28.2773 8.33594C28.2422 8.19141 28.209 8.05859 28.1777 7.9375C28.1504 7.8125 28.127 7.70508 28.1074 7.61523H28.0664C28.0508 7.70508 28.0293 7.8125 28.002 7.9375C27.9746 8.05859 27.9414 8.19141 27.9023 8.33594C27.8672 8.48047 27.8281 8.63281 27.7852 8.79297C27.7422 8.94922 27.6934 9.10742 27.6387 9.26758L26.4434 12.9883H25.3477L23.5781 6.56641H24.5859L25.5117 10.1113C25.5742 10.3457 25.6328 10.5781 25.6875 10.8086C25.7461 11.0352 25.7949 11.25 25.834 11.4531C25.877 11.6523 25.9082 11.8262 25.9277 11.9746H25.9746C25.998 11.877 26.0234 11.7598 26.0508 11.623C26.082 11.4863 26.1152 11.3418 26.1504 11.1895C26.1895 11.0332 26.2305 10.8789 26.2734 10.7266C26.3164 10.5703 26.3594 10.4238 26.4023 10.2871L27.5859 6.56641H28.6348L29.7773 10.2812C29.8359 10.4688 29.8926 10.6641 29.9473 10.8672C30.0059 11.0703 30.0586 11.2676 30.1055 11.459C30.1523 11.6465 30.1855 11.8145 30.2051 11.9629H30.252C30.2676 11.8301 30.2969 11.666 30.3398 11.4707C30.3828 11.2754 30.4316 11.0605 30.4863 10.8262C30.5449 10.5918 30.6055 10.3535 30.668 10.1113L31.6055 6.56641H32.5957L30.8203 12.9883H29.6895ZM34.7402 6.57812V13H33.7676V6.57812H34.7402ZM34.2656 4.17578C34.4258 4.17578 34.5625 4.22852 34.6758 4.33398C34.793 4.43555 34.8516 4.5957 34.8516 4.81445C34.8516 5.0293 34.793 5.18945 34.6758 5.29492C34.5625 5.40039 34.4258 5.45312 34.2656 5.45312C34.0977 5.45312 33.957 5.40039 33.8438 5.29492C33.7344 5.18945 33.6797 5.0293 33.6797 4.81445C33.6797 4.5957 33.7344 4.43555 33.8438 4.33398C33.957 4.22852 34.0977 4.17578 34.2656 4.17578ZM38.877 12.3203C39.0371 12.3203 39.2012 12.3066 39.3691 12.2793C39.5371 12.252 39.6738 12.2188 39.7793 12.1797V12.9355C39.666 12.9863 39.5078 13.0293 39.3047 13.0645C39.1055 13.0996 38.9102 13.1172 38.7188 13.1172C38.3789 13.1172 38.0703 13.0586 37.793 12.9414C37.5156 12.8203 37.293 12.6172 37.125 12.332C36.9609 12.0469 36.8789 11.6523 36.8789 11.1484V7.33984H35.9648V6.86523L36.8848 6.48438L37.2715 5.08984H37.8574V6.57812H39.7383V7.33984H37.8574V11.1191C37.8574 11.5215 37.9492 11.8223 38.1328 12.0215C38.3203 12.2207 38.5684 12.3203 38.877 12.3203ZM43.6523 13.1172C43.0742 13.1172 42.5645 12.998 42.123 12.7598C41.6816 12.5215 41.3379 12.1582 41.0918 11.6699C40.8457 11.1816 40.7227 10.5664 40.7227 9.82422C40.7227 9.04688 40.8516 8.41211 41.1094 7.91992C41.3711 7.42383 41.7305 7.05664 42.1875 6.81836C42.6445 6.58008 43.1641 6.46094 43.7461 6.46094C44.0664 6.46094 44.375 6.49414 44.6719 6.56055C44.9727 6.62305 45.2188 6.70312 45.4102 6.80078L45.1172 7.61523C44.9219 7.53711 44.6953 7.4668 44.4375 7.4043C44.1836 7.3418 43.9453 7.31055 43.7227 7.31055C43.2773 7.31055 42.9062 7.40625 42.6094 7.59766C42.3164 7.78906 42.0957 8.07031 41.9473 8.44141C41.8027 8.8125 41.7305 9.26953 41.7305 9.8125C41.7305 10.332 41.8008 10.7754 41.9414 11.1426C42.0859 11.5098 42.2988 11.791 42.5801 11.9863C42.8652 12.1777 43.2207 12.2734 43.6465 12.2734C43.9863 12.2734 44.293 12.2383 44.5664 12.168C44.8398 12.0938 45.0879 12.0078 45.3105 11.9102V12.7773C45.0957 12.8867 44.8555 12.9707 44.5898 13.0293C44.3281 13.0879 44.0156 13.1172 43.6523 13.1172ZM47.8066 3.88281V6.60742C47.8066 6.76367 47.8027 6.92188 47.7949 7.08203C47.7871 7.23828 47.7734 7.38281 47.7539 7.51562H47.8184C47.9512 7.28906 48.1191 7.09961 48.3223 6.94727C48.5293 6.79102 48.7637 6.67383 49.0254 6.5957C49.2871 6.51367 49.5645 6.47266 49.8574 6.47266C50.373 6.47266 50.8027 6.55469 51.1465 6.71875C51.4941 6.88281 51.7539 7.13672 51.9258 7.48047C52.1016 7.82422 52.1895 8.26953 52.1895 8.81641V13H51.2285V8.88086C51.2285 8.3457 51.1055 7.94531 50.8594 7.67969C50.6172 7.41406 50.2441 7.28125 49.7402 7.28125C49.2637 7.28125 48.8828 7.37305 48.5977 7.55664C48.3164 7.73633 48.1133 8.00195 47.9883 8.35352C47.8672 8.70508 47.8066 9.13477 47.8066 9.64258V13H46.834V3.88281H47.8066Z" fill="#8B8E96"/>
<path d="M87.0059 256.721C87.0059 257.229 86.8789 257.662 86.625 258.021C86.375 258.377 86.0234 258.648 85.5703 258.836C85.1172 259.023 84.584 259.117 83.9707 259.117C83.6465 259.117 83.3398 259.102 83.0508 259.07C82.7617 259.039 82.4961 258.994 82.2539 258.936C82.0117 258.877 81.7988 258.805 81.6152 258.719V257.764C81.9082 257.885 82.2656 257.998 82.6875 258.104C83.1094 258.205 83.5508 258.256 84.0117 258.256C84.4414 258.256 84.8047 258.199 85.1016 258.086C85.3984 257.969 85.623 257.803 85.7754 257.588C85.9316 257.369 86.0098 257.107 86.0098 256.803C86.0098 256.51 85.9453 256.266 85.8164 256.07C85.6875 255.871 85.4727 255.691 85.1719 255.531C84.875 255.367 84.4688 255.193 83.9531 255.01C83.5898 254.881 83.2695 254.74 82.9922 254.588C82.7148 254.432 82.4824 254.256 82.2949 254.061C82.1074 253.865 81.9648 253.639 81.8672 253.381C81.7734 253.123 81.7266 252.828 81.7266 252.496C81.7266 252.039 81.8418 251.648 82.0723 251.324C82.3066 250.996 82.6289 250.746 83.0391 250.574C83.4531 250.398 83.9277 250.311 84.4629 250.311C84.9199 250.311 85.3418 250.354 85.7285 250.439C86.1191 250.525 86.4766 250.641 86.8008 250.785L86.4902 251.641C86.1816 251.512 85.8535 251.404 85.5059 251.318C85.1621 251.232 84.8066 251.189 84.4395 251.189C84.0723 251.189 83.7617 251.244 83.5078 251.354C83.2578 251.459 83.0664 251.609 82.9336 251.805C82.8008 252 82.7344 252.232 82.7344 252.502C82.7344 252.803 82.7969 253.053 82.9219 253.252C83.0508 253.451 83.2539 253.629 83.5312 253.785C83.8125 253.938 84.1836 254.098 84.6445 254.266C85.1484 254.449 85.5762 254.645 85.9277 254.852C86.2793 255.055 86.5469 255.305 86.7305 255.602C86.9141 255.895 87.0059 256.268 87.0059 256.721ZM89.5898 259H88.6113V249.883H89.5898V259ZM94.0488 252.473C94.8145 252.473 95.3828 252.645 95.7539 252.988C96.125 253.332 96.3105 253.881 96.3105 254.635V259H95.6016L95.4141 258.051H95.3672C95.1875 258.285 95 258.482 94.8047 258.643C94.6094 258.799 94.3828 258.918 94.125 259C93.8711 259.078 93.5586 259.117 93.1875 259.117C92.7969 259.117 92.4492 259.049 92.1445 258.912C91.8438 258.775 91.6055 258.568 91.4297 258.291C91.2578 258.014 91.1719 257.662 91.1719 257.236C91.1719 256.596 91.4258 256.104 91.9336 255.76C92.4414 255.416 93.2148 255.229 94.2539 255.197L95.3613 255.15V254.758C95.3613 254.203 95.2422 253.814 95.0039 253.592C94.7656 253.369 94.4297 253.258 93.9961 253.258C93.6602 253.258 93.3398 253.307 93.0352 253.404C92.7305 253.502 92.4414 253.617 92.168 253.75L91.8691 253.012C92.1582 252.863 92.4902 252.736 92.8652 252.631C93.2402 252.525 93.6348 252.473 94.0488 252.473ZM95.3496 255.836L94.3711 255.877C93.5703 255.908 93.0059 256.039 92.6777 256.27C92.3496 256.5 92.1855 256.826 92.1855 257.248C92.1855 257.615 92.2969 257.887 92.5195 258.062C92.7422 258.238 93.0371 258.326 93.4043 258.326C93.9746 258.326 94.4414 258.168 94.8047 257.852C95.168 257.535 95.3496 257.061 95.3496 256.428V255.836ZM100.887 259.117C100.309 259.117 99.7988 258.998 99.3574 258.76C98.916 258.521 98.5723 258.158 98.3262 257.67C98.0801 257.182 97.957 256.566 97.957 255.824C97.957 255.047 98.0859 254.412 98.3438 253.92C98.6055 253.424 98.9648 253.057 99.4219 252.818C99.8789 252.58 100.398 252.461 100.98 252.461C101.301 252.461 101.609 252.494 101.906 252.561C102.207 252.623 102.453 252.703 102.645 252.801L102.352 253.615C102.156 253.537 101.93 253.467 101.672 253.404C101.418 253.342 101.18 253.311 100.957 253.311C100.512 253.311 100.141 253.406 99.8438 253.598C99.5508 253.789 99.3301 254.07 99.1816 254.441C99.0371 254.812 98.9648 255.27 98.9648 255.812C98.9648 256.332 99.0352 256.775 99.1758 257.143C99.3203 257.51 99.5332 257.791 99.8145 257.986C100.1 258.178 100.455 258.273 100.881 258.273C101.221 258.273 101.527 258.238 101.801 258.168C102.074 258.094 102.322 258.008 102.545 257.91V258.777C102.33 258.887 102.09 258.971 101.824 259.029C101.562 259.088 101.25 259.117 100.887 259.117ZM105.035 249.883V254.617C105.035 254.773 105.029 254.965 105.018 255.191C105.006 255.414 104.996 255.611 104.988 255.783H105.029C105.111 255.682 105.23 255.531 105.387 255.332C105.547 255.133 105.682 254.973 105.791 254.852L107.924 252.578H109.066L106.482 255.32L109.254 259H108.082L105.814 255.959L105.035 256.674V259H104.068V249.883H105.035Z" fill="#8B8E96"/>
<rect x="72" y="59" width="48" height="173" rx="8" fill="#B6BAEA"/>
<path d="M178.936 261.256C178.74 261.256 178.568 261.242 178.42 261.215C178.271 261.188 178.145 261.15 178.039 261.104V260.254C178.164 260.293 178.299 260.322 178.443 260.342C178.588 260.365 178.744 260.377 178.912 260.377C179.131 260.377 179.332 260.334 179.516 260.248C179.699 260.162 179.846 260.016 179.955 259.809C180.064 259.602 180.119 259.316 180.119 258.953V250.434H181.121V258.877C181.121 259.412 181.031 259.855 180.852 260.207C180.676 260.559 180.424 260.82 180.096 260.992C179.771 261.168 179.385 261.256 178.936 261.256ZM184.221 252.578V259H183.248V252.578H184.221ZM183.746 250.176C183.906 250.176 184.043 250.229 184.156 250.334C184.273 250.436 184.332 250.596 184.332 250.814C184.332 251.029 184.273 251.189 184.156 251.295C184.043 251.4 183.906 251.453 183.746 251.453C183.578 251.453 183.438 251.4 183.324 251.295C183.215 251.189 183.16 251.029 183.16 250.814C183.16 250.596 183.215 250.436 183.324 250.334C183.438 250.229 183.578 250.176 183.746 250.176ZM189.201 252.461C189.33 252.461 189.465 252.469 189.605 252.484C189.746 252.496 189.871 252.514 189.98 252.537L189.857 253.439C189.752 253.412 189.635 253.391 189.506 253.375C189.377 253.359 189.256 253.352 189.143 253.352C188.885 253.352 188.641 253.404 188.41 253.51C188.184 253.611 187.984 253.76 187.812 253.955C187.641 254.146 187.506 254.379 187.408 254.652C187.311 254.922 187.262 255.223 187.262 255.555V259H186.283V252.578H187.092L187.197 253.762H187.238C187.371 253.523 187.531 253.307 187.719 253.111C187.906 252.912 188.123 252.754 188.369 252.637C188.619 252.52 188.896 252.461 189.201 252.461ZM193.596 252.473C194.361 252.473 194.93 252.645 195.301 252.988C195.672 253.332 195.857 253.881 195.857 254.635V259H195.148L194.961 258.051H194.914C194.734 258.285 194.547 258.482 194.352 258.643C194.156 258.799 193.93 258.918 193.672 259C193.418 259.078 193.105 259.117 192.734 259.117C192.344 259.117 191.996 259.049 191.691 258.912C191.391 258.775 191.152 258.568 190.977 258.291C190.805 258.014 190.719 257.662 190.719 257.236C190.719 256.596 190.973 256.104 191.48 255.76C191.988 255.416 192.762 255.229 193.801 255.197L194.908 255.15V254.758C194.908 254.203 194.789 253.814 194.551 253.592C194.312 253.369 193.977 253.258 193.543 253.258C193.207 253.258 192.887 253.307 192.582 253.404C192.277 253.502 191.988 253.617 191.715 253.75L191.416 253.012C191.705 252.863 192.037 252.736 192.412 252.631C192.787 252.525 193.182 252.473 193.596 252.473ZM194.896 255.836L193.918 255.877C193.117 255.908 192.553 256.039 192.225 256.27C191.896 256.5 191.732 256.826 191.732 257.248C191.732 257.615 191.844 257.887 192.066 258.062C192.289 258.238 192.584 258.326 192.951 258.326C193.521 258.326 193.988 258.168 194.352 257.852C194.715 257.535 194.896 257.061 194.896 256.428V255.836Z" fill="#8B8E96"/>
<rect x="164" y="105" width="48" height="127" rx="8" fill="#FED2D7"/>
<path d="M260.834 251.189C260.361 251.189 259.936 251.271 259.557 251.436C259.182 251.596 258.861 251.83 258.596 252.139C258.334 252.443 258.133 252.812 257.992 253.246C257.852 253.68 257.781 254.168 257.781 254.711C257.781 255.43 257.893 256.055 258.115 256.586C258.342 257.113 258.678 257.521 259.123 257.811C259.572 258.1 260.133 258.244 260.805 258.244C261.188 258.244 261.547 258.213 261.883 258.15C262.223 258.084 262.553 258.002 262.873 257.904V258.771C262.561 258.889 262.232 258.975 261.889 259.029C261.545 259.088 261.137 259.117 260.664 259.117C259.793 259.117 259.064 258.938 258.479 258.578C257.896 258.215 257.459 257.703 257.166 257.043C256.877 256.383 256.732 255.604 256.732 254.705C256.732 254.057 256.822 253.465 257.002 252.93C257.186 252.391 257.451 251.926 257.799 251.535C258.15 251.145 258.58 250.844 259.088 250.633C259.6 250.418 260.186 250.311 260.846 250.311C261.279 250.311 261.697 250.354 262.1 250.439C262.502 250.525 262.865 250.648 263.189 250.809L262.791 251.652C262.518 251.527 262.217 251.42 261.889 251.33C261.564 251.236 261.213 251.189 260.834 251.189ZM266.986 252.473C267.752 252.473 268.32 252.645 268.691 252.988C269.062 253.332 269.248 253.881 269.248 254.635V259H268.539L268.352 258.051H268.305C268.125 258.285 267.938 258.482 267.742 258.643C267.547 258.799 267.32 258.918 267.062 259C266.809 259.078 266.496 259.117 266.125 259.117C265.734 259.117 265.387 259.049 265.082 258.912C264.781 258.775 264.543 258.568 264.367 258.291C264.195 258.014 264.109 257.662 264.109 257.236C264.109 256.596 264.363 256.104 264.871 255.76C265.379 255.416 266.152 255.229 267.191 255.197L268.299 255.15V254.758C268.299 254.203 268.18 253.814 267.941 253.592C267.703 253.369 267.367 253.258 266.934 253.258C266.598 253.258 266.277 253.307 265.973 253.404C265.668 253.502 265.379 253.617 265.105 253.75L264.807 253.012C265.096 252.863 265.428 252.736 265.803 252.631C266.178 252.525 266.572 252.473 266.986 252.473ZM268.287 255.836L267.309 255.877C266.508 255.908 265.943 256.039 265.615 256.27C265.287 256.5 265.123 256.826 265.123 257.248C265.123 257.615 265.234 257.887 265.457 258.062C265.68 258.238 265.975 258.326 266.342 258.326C266.912 258.326 267.379 258.168 267.742 257.852C268.105 257.535 268.287 257.061 268.287 256.428V255.836ZM272.23 259H271.252V249.883H272.23V259ZM276.76 252.461C277.307 252.461 277.775 252.582 278.166 252.824C278.557 253.066 278.855 253.406 279.062 253.844C279.27 254.277 279.373 254.785 279.373 255.367V255.971H274.938C274.949 256.725 275.137 257.299 275.5 257.693C275.863 258.088 276.375 258.285 277.035 258.285C277.441 258.285 277.801 258.248 278.113 258.174C278.426 258.1 278.75 257.99 279.086 257.846V258.701C278.762 258.846 278.439 258.951 278.119 259.018C277.803 259.084 277.428 259.117 276.994 259.117C276.377 259.117 275.838 258.992 275.377 258.742C274.92 258.488 274.564 258.117 274.311 257.629C274.057 257.141 273.93 256.543 273.93 255.836C273.93 255.145 274.045 254.547 274.275 254.043C274.51 253.535 274.838 253.145 275.26 252.871C275.686 252.598 276.186 252.461 276.76 252.461ZM276.748 253.258C276.229 253.258 275.814 253.428 275.506 253.768C275.197 254.107 275.014 254.582 274.955 255.191H278.354C278.35 254.809 278.289 254.473 278.172 254.184C278.059 253.891 277.885 253.664 277.65 253.504C277.416 253.34 277.115 253.258 276.748 253.258ZM284.066 252.461C284.828 252.461 285.404 252.648 285.795 253.023C286.186 253.395 286.381 253.992 286.381 254.816V259H285.42V254.881C285.42 254.346 285.297 253.945 285.051 253.68C284.809 253.414 284.436 253.281 283.932 253.281C283.221 253.281 282.721 253.482 282.432 253.885C282.143 254.287 281.998 254.871 281.998 255.637V259H281.025V252.578H281.811L281.957 253.504H282.01C282.146 253.277 282.32 253.088 282.531 252.936C282.742 252.779 282.979 252.662 283.24 252.584C283.502 252.502 283.777 252.461 284.066 252.461ZM290.67 259.117C289.857 259.117 289.213 258.84 288.736 258.285C288.264 257.73 288.027 256.906 288.027 255.812C288.027 254.707 288.27 253.873 288.754 253.311C289.238 252.744 289.883 252.461 290.688 252.461C291.027 252.461 291.324 252.506 291.578 252.596C291.832 252.686 292.051 252.807 292.234 252.959C292.418 253.107 292.572 253.277 292.697 253.469H292.768C292.752 253.348 292.736 253.182 292.721 252.971C292.705 252.76 292.697 252.588 292.697 252.455V249.883H293.67V259H292.885L292.738 258.086H292.697C292.576 258.277 292.422 258.451 292.234 258.607C292.051 258.764 291.83 258.889 291.572 258.982C291.318 259.072 291.018 259.117 290.67 259.117ZM290.822 258.309C291.51 258.309 291.996 258.113 292.281 257.723C292.566 257.332 292.709 256.752 292.709 255.982V255.807C292.709 254.99 292.572 254.363 292.299 253.926C292.029 253.488 291.537 253.27 290.822 253.27C290.225 253.27 289.777 253.5 289.48 253.961C289.184 254.418 289.035 255.043 289.035 255.836C289.035 256.625 289.182 257.234 289.475 257.664C289.771 258.094 290.221 258.309 290.822 258.309ZM298.135 252.473C298.9 252.473 299.469 252.645 299.84 252.988C300.211 253.332 300.396 253.881 300.396 254.635V259H299.688L299.5 258.051H299.453C299.273 258.285 299.086 258.482 298.891 258.643C298.695 258.799 298.469 258.918 298.211 259C297.957 259.078 297.645 259.117 297.273 259.117C296.883 259.117 296.535 259.049 296.23 258.912C295.93 258.775 295.691 258.568 295.516 258.291C295.344 258.014 295.258 257.662 295.258 257.236C295.258 256.596 295.512 256.104 296.02 255.76C296.527 255.416 297.301 255.229 298.34 255.197L299.447 255.15V254.758C299.447 254.203 299.328 253.814 299.09 253.592C298.852 253.369 298.516 253.258 298.082 253.258C297.746 253.258 297.426 253.307 297.121 253.404C296.816 253.502 296.527 253.617 296.254 253.75L295.955 253.012C296.244 252.863 296.576 252.736 296.951 252.631C297.326 252.525 297.721 252.473 298.135 252.473ZM299.436 255.836L298.457 255.877C297.656 255.908 297.092 256.039 296.764 256.27C296.436 256.5 296.271 256.826 296.271 257.248C296.271 257.615 296.383 257.887 296.605 258.062C296.828 258.238 297.123 258.326 297.49 258.326C298.061 258.326 298.527 258.168 298.891 257.852C299.254 257.535 299.436 257.061 299.436 256.428V255.836ZM305.318 252.461C305.447 252.461 305.582 252.469 305.723 252.484C305.863 252.496 305.988 252.514 306.098 252.537L305.975 253.439C305.869 253.412 305.752 253.391 305.623 253.375C305.494 253.359 305.373 253.352 305.26 253.352C305.002 253.352 304.758 253.404 304.527 253.51C304.301 253.611 304.102 253.76 303.93 253.955C303.758 254.146 303.623 254.379 303.525 254.652C303.428 254.922 303.379 255.223 303.379 255.555V259H302.4V252.578H303.209L303.314 253.762H303.355C303.488 253.523 303.648 253.307 303.836 253.111C304.023 252.912 304.24 252.754 304.486 252.637C304.736 252.52 305.014 252.461 305.318 252.461Z" fill="#8B8E96"/>
<rect x="257" y="138" width="48" height="94" rx="8" fill="#FCD98E"/>
<path d="M362.869 259H361.721L357.051 251.805H357.004C357.016 251.996 357.029 252.215 357.045 252.461C357.061 252.703 357.072 252.963 357.08 253.24C357.092 253.514 357.098 253.793 357.098 254.078V259H356.172V250.434H357.314L361.967 257.605H362.008C362 257.469 361.99 257.275 361.979 257.025C361.967 256.771 361.955 256.5 361.943 256.211C361.936 255.918 361.932 255.646 361.932 255.396V250.434H362.869V259ZM370.598 255.777C370.598 256.305 370.529 256.775 370.393 257.189C370.256 257.604 370.059 257.953 369.801 258.238C369.543 258.523 369.23 258.742 368.863 258.895C368.5 259.043 368.088 259.117 367.627 259.117C367.197 259.117 366.803 259.043 366.443 258.895C366.088 258.742 365.779 258.523 365.518 258.238C365.26 257.953 365.059 257.604 364.914 257.189C364.773 256.775 364.703 256.305 364.703 255.777C364.703 255.074 364.822 254.477 365.061 253.984C365.299 253.488 365.639 253.111 366.08 252.854C366.525 252.592 367.055 252.461 367.668 252.461C368.254 252.461 368.766 252.592 369.203 252.854C369.645 253.115 369.986 253.494 370.229 253.99C370.475 254.482 370.598 255.078 370.598 255.777ZM365.711 255.777C365.711 256.293 365.779 256.74 365.916 257.119C366.053 257.498 366.264 257.791 366.549 257.998C366.834 258.205 367.201 258.309 367.65 258.309C368.096 258.309 368.461 258.205 368.746 257.998C369.035 257.791 369.248 257.498 369.385 257.119C369.521 256.74 369.59 256.293 369.59 255.777C369.59 255.266 369.521 254.824 369.385 254.453C369.248 254.078 369.037 253.789 368.752 253.586C368.467 253.383 368.098 253.281 367.645 253.281C366.977 253.281 366.486 253.502 366.174 253.943C365.865 254.385 365.711 254.996 365.711 255.777ZM374.354 258.32C374.514 258.32 374.678 258.307 374.846 258.279C375.014 258.252 375.15 258.219 375.256 258.18V258.936C375.143 258.986 374.984 259.029 374.781 259.064C374.582 259.1 374.387 259.117 374.195 259.117C373.855 259.117 373.547 259.059 373.27 258.941C372.992 258.82 372.77 258.617 372.602 258.332C372.438 258.047 372.355 257.652 372.355 257.148V253.34H371.441V252.865L372.361 252.484L372.748 251.09H373.334V252.578H375.215V253.34H373.334V257.119C373.334 257.521 373.426 257.822 373.609 258.021C373.797 258.221 374.045 258.32 374.354 258.32ZM377.529 252.578V259H376.557V252.578H377.529ZM377.055 250.176C377.215 250.176 377.352 250.229 377.465 250.334C377.582 250.436 377.641 250.596 377.641 250.814C377.641 251.029 377.582 251.189 377.465 251.295C377.352 251.4 377.215 251.453 377.055 251.453C376.887 251.453 376.746 251.4 376.633 251.295C376.523 251.189 376.469 251.029 376.469 250.814C376.469 250.596 376.523 250.436 376.633 250.334C376.746 250.229 376.887 250.176 377.055 250.176ZM385.129 255.777C385.129 256.305 385.061 256.775 384.924 257.189C384.787 257.604 384.59 257.953 384.332 258.238C384.074 258.523 383.762 258.742 383.395 258.895C383.031 259.043 382.619 259.117 382.158 259.117C381.729 259.117 381.334 259.043 380.975 258.895C380.619 258.742 380.311 258.523 380.049 258.238C379.791 257.953 379.59 257.604 379.445 257.189C379.305 256.775 379.234 256.305 379.234 255.777C379.234 255.074 379.354 254.477 379.592 253.984C379.83 253.488 380.17 253.111 380.611 252.854C381.057 252.592 381.586 252.461 382.199 252.461C382.785 252.461 383.297 252.592 383.734 252.854C384.176 253.115 384.518 253.494 384.76 253.99C385.006 254.482 385.129 255.078 385.129 255.777ZM380.242 255.777C380.242 256.293 380.311 256.74 380.447 257.119C380.584 257.498 380.795 257.791 381.08 257.998C381.365 258.205 381.732 258.309 382.182 258.309C382.627 258.309 382.992 258.205 383.277 257.998C383.566 257.791 383.779 257.498 383.916 257.119C384.053 256.74 384.121 256.293 384.121 255.777C384.121 255.266 384.053 254.824 383.916 254.453C383.779 254.078 383.568 253.789 383.283 253.586C382.998 253.383 382.629 253.281 382.176 253.281C381.508 253.281 381.018 253.502 380.705 253.943C380.396 254.385 380.242 254.996 380.242 255.777ZM389.852 252.461C390.613 252.461 391.189 252.648 391.58 253.023C391.971 253.395 392.166 253.992 392.166 254.816V259H391.205V254.881C391.205 254.346 391.082 253.945 390.836 253.68C390.594 253.414 390.221 253.281 389.717 253.281C389.006 253.281 388.506 253.482 388.217 253.885C387.928 254.287 387.783 254.871 387.783 255.637V259H386.811V252.578H387.596L387.742 253.504H387.795C387.932 253.277 388.105 253.088 388.316 252.936C388.527 252.779 388.764 252.662 389.025 252.584C389.287 252.502 389.562 252.461 389.852 252.461Z" fill="#8B8E96"/>
<rect x="351" y="171" width="48" height="61" rx="8" fill="#F7946F"/>
<path d="M458.941 259H454.172V250.434H458.941V251.312H455.168V254.084H458.725V254.951H455.168V258.121H458.941V259ZM462.223 255.713L460.002 252.578H461.115L462.809 255.051L464.496 252.578H465.598L463.377 255.713L465.721 259H464.607L462.809 256.381L460.998 259H459.896L462.223 255.713ZM469.547 259.117C468.969 259.117 468.459 258.998 468.018 258.76C467.576 258.521 467.232 258.158 466.986 257.67C466.74 257.182 466.617 256.566 466.617 255.824C466.617 255.047 466.746 254.412 467.004 253.92C467.266 253.424 467.625 253.057 468.082 252.818C468.539 252.58 469.059 252.461 469.641 252.461C469.961 252.461 470.27 252.494 470.566 252.561C470.867 252.623 471.113 252.703 471.305 252.801L471.012 253.615C470.816 253.537 470.59 253.467 470.332 253.404C470.078 253.342 469.84 253.311 469.617 253.311C469.172 253.311 468.801 253.406 468.504 253.598C468.211 253.789 467.99 254.07 467.842 254.441C467.697 254.812 467.625 255.27 467.625 255.812C467.625 256.332 467.695 256.775 467.836 257.143C467.98 257.51 468.193 257.791 468.475 257.986C468.76 258.178 469.115 258.273 469.541 258.273C469.881 258.273 470.188 258.238 470.461 258.168C470.734 258.094 470.982 258.008 471.205 257.91V258.777C470.99 258.887 470.75 258.971 470.484 259.029C470.223 259.088 469.91 259.117 469.547 259.117ZM475.201 252.461C475.748 252.461 476.217 252.582 476.607 252.824C476.998 253.066 477.297 253.406 477.504 253.844C477.711 254.277 477.814 254.785 477.814 255.367V255.971H473.379C473.391 256.725 473.578 257.299 473.941 257.693C474.305 258.088 474.816 258.285 475.477 258.285C475.883 258.285 476.242 258.248 476.555 258.174C476.867 258.1 477.191 257.99 477.527 257.846V258.701C477.203 258.846 476.881 258.951 476.561 259.018C476.244 259.084 475.869 259.117 475.436 259.117C474.818 259.117 474.279 258.992 473.818 258.742C473.361 258.488 473.006 258.117 472.752 257.629C472.498 257.141 472.371 256.543 472.371 255.836C472.371 255.145 472.486 254.547 472.717 254.043C472.951 253.535 473.279 253.145 473.701 252.871C474.127 252.598 474.627 252.461 475.201 252.461ZM475.189 253.258C474.67 253.258 474.256 253.428 473.947 253.768C473.639 254.107 473.455 254.582 473.396 255.191H476.795C476.791 254.809 476.73 254.473 476.613 254.184C476.5 253.891 476.326 253.664 476.092 253.504C475.857 253.34 475.557 253.258 475.189 253.258ZM480.445 259H479.467V249.883H480.445V259Z" fill="#8B8E96"/>
<rect x="443" y="184" width="48" height="48" rx="8" fill="#77B8A0"/>
</svg>
