<svg width="384" height="186" viewBox="0 0 384 186" fill="none" xmlns="http://www.w3.org/2000/svg">
<rect width="384" height="186" rx="20" fill="white"/>
<path d="M33.3125 150V140.006H34.9531V148.605H39.1982V150H33.3125ZM47.4629 146.199C47.4629 146.828 47.3809 147.386 47.2168 147.874C47.0527 148.362 46.8135 148.774 46.499 149.111C46.1846 149.444 45.8063 149.699 45.3643 149.877C44.9222 150.05 44.4232 150.137 43.8672 150.137C43.3477 150.137 42.8714 150.05 42.4385 149.877C42.0055 149.699 41.6296 149.444 41.3105 149.111C40.9961 148.774 40.7523 148.362 40.5791 147.874C40.4059 147.386 40.3193 146.828 40.3193 146.199C40.3193 145.365 40.4629 144.659 40.75 144.08C41.0417 143.497 41.4564 143.052 41.9941 142.747C42.5319 142.442 43.1722 142.289 43.915 142.289C44.6123 142.289 45.2275 142.442 45.7607 142.747C46.2939 143.052 46.7109 143.497 47.0117 144.08C47.3125 144.663 47.4629 145.37 47.4629 146.199ZM41.9736 146.199C41.9736 146.751 42.0397 147.222 42.1719 147.614C42.3086 148.006 42.5182 148.307 42.8008 148.517C43.0833 148.722 43.4479 148.824 43.8945 148.824C44.3411 148.824 44.7057 148.722 44.9883 148.517C45.2708 148.307 45.4782 148.006 45.6104 147.614C45.7425 147.222 45.8086 146.751 45.8086 146.199C45.8086 145.648 45.7425 145.181 45.6104 144.798C45.4782 144.41 45.2708 144.117 44.9883 143.916C44.7057 143.711 44.3389 143.608 43.8877 143.608C43.2223 143.608 42.737 143.832 42.4316 144.278C42.1263 144.725 41.9736 145.365 41.9736 146.199ZM54.3945 147.84C54.3945 148.337 54.2738 148.756 54.0322 149.098C53.7907 149.439 53.4375 149.699 52.9727 149.877C52.5124 150.05 51.9473 150.137 51.2773 150.137C50.7487 150.137 50.293 150.098 49.9102 150.021C49.5319 149.948 49.1742 149.834 48.8369 149.679V148.291C49.1969 148.46 49.6003 148.605 50.0469 148.729C50.498 148.852 50.9242 148.913 51.3252 148.913C51.8538 148.913 52.2344 148.831 52.4668 148.667C52.6992 148.498 52.8154 148.275 52.8154 147.997C52.8154 147.833 52.7676 147.687 52.6719 147.56C52.5807 147.427 52.4076 147.293 52.1523 147.156C51.9017 147.015 51.5326 146.846 51.0449 146.65C50.5664 146.459 50.1631 146.268 49.835 146.076C49.5068 145.885 49.2585 145.655 49.0898 145.386C48.9212 145.112 48.8369 144.764 48.8369 144.34C48.8369 143.67 49.1012 143.162 49.6299 142.815C50.1631 142.465 50.8672 142.289 51.7422 142.289C52.207 142.289 52.6445 142.337 53.0547 142.433C53.4694 142.524 53.875 142.658 54.2715 142.836L53.7656 144.046C53.4238 143.896 53.0798 143.772 52.7334 143.677C52.3916 143.576 52.043 143.526 51.6875 143.526C51.2728 143.526 50.9561 143.59 50.7373 143.718C50.5231 143.845 50.416 144.028 50.416 144.265C50.416 144.442 50.4684 144.593 50.5732 144.716C50.6781 144.839 50.8581 144.962 51.1133 145.085C51.373 145.208 51.7331 145.361 52.1934 145.543C52.6445 145.716 53.0342 145.898 53.3623 146.09C53.695 146.277 53.9502 146.507 54.1279 146.78C54.3057 147.054 54.3945 147.407 54.3945 147.84ZM58.9473 148.838C59.1569 148.838 59.3643 148.82 59.5693 148.783C59.7744 148.742 59.9613 148.694 60.1299 148.64V149.856C59.9521 149.934 59.722 150 59.4395 150.055C59.1569 150.109 58.863 150.137 58.5576 150.137C58.1292 150.137 57.7441 150.066 57.4023 149.925C57.0605 149.779 56.7894 149.531 56.5889 149.18C56.3883 148.829 56.2881 148.343 56.2881 147.724V143.656H55.2559V142.938L56.3633 142.371L56.8896 140.751H57.9014V142.433H60.0684V143.656H57.9014V147.703C57.9014 148.086 57.9971 148.371 58.1885 148.558C58.3799 148.744 58.6328 148.838 58.9473 148.838ZM67.8477 150.137C66.9453 150.137 66.2207 149.809 65.6738 149.152C65.1315 148.492 64.8604 147.519 64.8604 146.233C64.8604 144.935 65.1361 143.952 65.6875 143.287C66.2435 142.622 66.9749 142.289 67.8818 142.289C68.2646 142.289 68.5996 142.341 68.8867 142.446C69.1738 142.547 69.4199 142.683 69.625 142.856C69.8346 143.03 70.0124 143.223 70.1582 143.438H70.2334C70.2106 143.296 70.1833 143.093 70.1514 142.829C70.124 142.56 70.1104 142.312 70.1104 142.084V139.363H71.7236V150H70.4658L70.1787 148.968H70.1104C69.9736 149.187 69.8005 149.385 69.5908 149.562C69.3857 149.736 69.1396 149.875 68.8525 149.979C68.57 150.084 68.235 150.137 67.8477 150.137ZM68.2988 148.831C68.987 148.831 69.4723 148.633 69.7549 148.236C70.0374 147.84 70.1833 147.245 70.1924 146.452V146.24C70.1924 145.393 70.0557 144.743 69.7822 144.292C69.5088 143.836 69.0098 143.608 68.2852 143.608C67.7064 143.608 67.2643 143.843 66.959 144.312C66.6582 144.777 66.5078 145.427 66.5078 146.261C66.5078 147.095 66.6582 147.733 66.959 148.175C67.2643 148.612 67.7109 148.831 68.2988 148.831ZM76.9941 142.289C77.9512 142.289 78.6735 142.501 79.1611 142.925C79.6533 143.349 79.8994 144.009 79.8994 144.907V150H78.7578L78.4502 148.927H78.3955C78.1813 149.2 77.9603 149.426 77.7324 149.604C77.5046 149.781 77.2402 149.913 76.9395 150C76.6432 150.091 76.2809 150.137 75.8525 150.137C75.4014 150.137 74.998 150.055 74.6426 149.891C74.2871 149.722 74.0068 149.467 73.8018 149.125C73.5967 148.783 73.4941 148.35 73.4941 147.826C73.4941 147.047 73.7835 146.461 74.3623 146.069C74.9456 145.677 75.8252 145.461 77.001 145.42L78.3135 145.372V144.976C78.3135 144.451 78.1904 144.078 77.9443 143.854C77.7028 143.631 77.361 143.52 76.9189 143.52C76.5407 143.52 76.1738 143.574 75.8184 143.684C75.4629 143.793 75.1165 143.927 74.7793 144.087L74.2598 142.952C74.6289 142.756 75.0482 142.597 75.5176 142.474C75.9915 142.351 76.4837 142.289 76.9941 142.289ZM78.3066 146.384L77.3291 146.418C76.527 146.445 75.9642 146.582 75.6406 146.828C75.3171 147.074 75.1553 147.411 75.1553 147.84C75.1553 148.214 75.2669 148.487 75.4902 148.66C75.7135 148.829 76.0075 148.913 76.3721 148.913C76.9281 148.913 77.3883 148.756 77.7529 148.441C78.1221 148.122 78.3066 147.655 78.3066 147.04V146.384ZM83.7549 142.433V150H82.1484V142.433H83.7549ZM82.9619 139.534C83.208 139.534 83.4199 139.6 83.5977 139.732C83.7799 139.865 83.8711 140.092 83.8711 140.416C83.8711 140.735 83.7799 140.963 83.5977 141.1C83.4199 141.232 83.208 141.298 82.9619 141.298C82.7067 141.298 82.4902 141.232 82.3125 141.1C82.1393 140.963 82.0527 140.735 82.0527 140.416C82.0527 140.092 82.1393 139.865 82.3125 139.732C82.4902 139.6 82.7067 139.534 82.9619 139.534ZM87.6719 150H86.0586V139.363H87.6719V150ZM88.8271 142.433H90.5771L92.1289 146.753C92.1973 146.949 92.2588 147.143 92.3135 147.334C92.3727 147.521 92.4229 147.705 92.4639 147.888C92.5094 148.07 92.5459 148.252 92.5732 148.435H92.6143C92.6598 148.198 92.7236 147.933 92.8057 147.642C92.8923 147.345 92.988 147.049 93.0928 146.753L94.583 142.433H96.3125L93.0654 151.039C92.8786 151.531 92.6484 151.951 92.375 152.297C92.1061 152.648 91.7871 152.912 91.418 153.09C91.0488 153.272 90.6273 153.363 90.1533 153.363C89.9255 153.363 89.7272 153.35 89.5586 153.322C89.39 153.299 89.2464 153.274 89.1279 153.247V151.962C89.2236 151.985 89.3444 152.005 89.4902 152.023C89.6361 152.042 89.7865 152.051 89.9414 152.051C90.2285 152.051 90.4769 151.994 90.6865 151.88C90.8962 151.766 91.0739 151.604 91.2197 151.395C91.3656 151.189 91.4863 150.955 91.582 150.69L91.8486 149.979L88.8271 142.433ZM103.914 148.838C104.124 148.838 104.331 148.82 104.536 148.783C104.741 148.742 104.928 148.694 105.097 148.64V149.856C104.919 149.934 104.689 150 104.406 150.055C104.124 150.109 103.83 150.137 103.524 150.137C103.096 150.137 102.711 150.066 102.369 149.925C102.027 149.779 101.756 149.531 101.556 149.18C101.355 148.829 101.255 148.343 101.255 147.724V143.656H100.223V142.938L101.33 142.371L101.856 140.751H102.868V142.433H105.035V143.656H102.868V147.703C102.868 148.086 102.964 148.371 103.155 148.558C103.347 148.744 103.6 148.838 103.914 148.838ZM113.334 146.199C113.334 146.828 113.252 147.386 113.088 147.874C112.924 148.362 112.685 148.774 112.37 149.111C112.056 149.444 111.677 149.699 111.235 149.877C110.793 150.05 110.294 150.137 109.738 150.137C109.219 150.137 108.743 150.05 108.31 149.877C107.877 149.699 107.501 149.444 107.182 149.111C106.867 148.774 106.623 148.362 106.45 147.874C106.277 147.386 106.19 146.828 106.19 146.199C106.19 145.365 106.334 144.659 106.621 144.08C106.913 143.497 107.327 143.052 107.865 142.747C108.403 142.442 109.043 142.289 109.786 142.289C110.483 142.289 111.099 142.442 111.632 142.747C112.165 143.052 112.582 143.497 112.883 144.08C113.184 144.663 113.334 145.37 113.334 146.199ZM107.845 146.199C107.845 146.751 107.911 147.222 108.043 147.614C108.18 148.006 108.389 148.307 108.672 148.517C108.954 148.722 109.319 148.824 109.766 148.824C110.212 148.824 110.577 148.722 110.859 148.517C111.142 148.307 111.349 148.006 111.481 147.614C111.614 147.222 111.68 146.751 111.68 146.199C111.68 145.648 111.614 145.181 111.481 144.798C111.349 144.41 111.142 144.117 110.859 143.916C110.577 143.711 110.21 143.608 109.759 143.608C109.093 143.608 108.608 143.832 108.303 144.278C107.997 144.725 107.845 145.365 107.845 146.199ZM127.368 142.289C128.216 142.289 128.854 142.508 129.282 142.945C129.715 143.383 129.932 144.085 129.932 145.051V150H128.325V145.338C128.325 144.764 128.214 144.331 127.99 144.039C127.767 143.747 127.427 143.602 126.972 143.602C126.334 143.602 125.873 143.807 125.591 144.217C125.313 144.622 125.174 145.213 125.174 145.987V150H123.567V145.338C123.567 144.955 123.517 144.636 123.417 144.381C123.321 144.121 123.173 143.927 122.973 143.8C122.772 143.668 122.519 143.602 122.214 143.602C121.772 143.602 121.419 143.702 121.154 143.902C120.895 144.103 120.708 144.399 120.594 144.791C120.48 145.178 120.423 145.655 120.423 146.22V150H118.816V142.433H120.067L120.293 143.451H120.382C120.537 143.187 120.728 142.97 120.956 142.802C121.188 142.629 121.446 142.501 121.729 142.419C122.011 142.332 122.305 142.289 122.61 142.289C123.175 142.289 123.652 142.389 124.039 142.59C124.426 142.786 124.716 143.087 124.907 143.492H125.03C125.267 143.082 125.598 142.779 126.021 142.583C126.445 142.387 126.894 142.289 127.368 142.289ZM135.141 142.289C136.098 142.289 136.82 142.501 137.308 142.925C137.8 143.349 138.046 144.009 138.046 144.907V150H136.904L136.597 148.927H136.542C136.328 149.2 136.107 149.426 135.879 149.604C135.651 149.781 135.387 149.913 135.086 150C134.79 150.091 134.427 150.137 133.999 150.137C133.548 150.137 133.145 150.055 132.789 149.891C132.434 149.722 132.153 149.467 131.948 149.125C131.743 148.783 131.641 148.35 131.641 147.826C131.641 147.047 131.93 146.461 132.509 146.069C133.092 145.677 133.972 145.461 135.147 145.42L136.46 145.372V144.976C136.46 144.451 136.337 144.078 136.091 143.854C135.849 143.631 135.507 143.52 135.065 143.52C134.687 143.52 134.32 143.574 133.965 143.684C133.609 143.793 133.263 143.927 132.926 144.087L132.406 142.952C132.775 142.756 133.195 142.597 133.664 142.474C134.138 142.351 134.63 142.289 135.141 142.289ZM136.453 146.384L135.476 146.418C134.674 146.445 134.111 146.582 133.787 146.828C133.464 147.074 133.302 147.411 133.302 147.84C133.302 148.214 133.413 148.487 133.637 148.66C133.86 148.829 134.154 148.913 134.519 148.913C135.075 148.913 135.535 148.756 135.899 148.441C136.269 148.122 136.453 147.655 136.453 147.04V146.384ZM144.239 142.289C145.091 142.289 145.755 142.51 146.229 142.952C146.707 143.39 146.946 144.094 146.946 145.064V150H145.34V145.365C145.34 144.777 145.219 144.338 144.978 144.046C144.736 143.75 144.362 143.602 143.856 143.602C143.123 143.602 142.612 143.827 142.325 144.278C142.043 144.729 141.901 145.383 141.901 146.24V150H140.295V142.433H141.546L141.771 143.458H141.86C142.024 143.194 142.227 142.977 142.469 142.809C142.715 142.635 142.988 142.506 143.289 142.419C143.594 142.332 143.911 142.289 144.239 142.289ZM155.792 142.433V150H154.527L154.309 148.981H154.22C154.06 149.241 153.857 149.458 153.611 149.631C153.365 149.799 153.092 149.925 152.791 150.007C152.49 150.093 152.174 150.137 151.841 150.137C151.271 150.137 150.784 150.041 150.378 149.85C149.977 149.654 149.669 149.353 149.455 148.947C149.241 148.542 149.134 148.018 149.134 147.375V142.433H150.747V147.074C150.747 147.662 150.866 148.102 151.103 148.394C151.344 148.685 151.718 148.831 152.224 148.831C152.711 148.831 153.099 148.731 153.386 148.53C153.673 148.33 153.876 148.034 153.994 147.642C154.117 147.25 154.179 146.769 154.179 146.199V142.433H155.792ZM161.062 142.289C162.02 142.289 162.742 142.501 163.229 142.925C163.722 143.349 163.968 144.009 163.968 144.907V150H162.826L162.519 148.927H162.464C162.25 149.2 162.029 149.426 161.801 149.604C161.573 149.781 161.309 149.913 161.008 150C160.712 150.091 160.349 150.137 159.921 150.137C159.47 150.137 159.066 150.055 158.711 149.891C158.355 149.722 158.075 149.467 157.87 149.125C157.665 148.783 157.562 148.35 157.562 147.826C157.562 147.047 157.852 146.461 158.431 146.069C159.014 145.677 159.894 145.461 161.069 145.42L162.382 145.372V144.976C162.382 144.451 162.259 144.078 162.013 143.854C161.771 143.631 161.429 143.52 160.987 143.52C160.609 143.52 160.242 143.574 159.887 143.684C159.531 143.793 159.185 143.927 158.848 144.087L158.328 142.952C158.697 142.756 159.117 142.597 159.586 142.474C160.06 142.351 160.552 142.289 161.062 142.289ZM162.375 146.384L161.397 146.418C160.595 146.445 160.033 146.582 159.709 146.828C159.385 147.074 159.224 147.411 159.224 147.84C159.224 148.214 159.335 148.487 159.559 148.66C159.782 148.829 160.076 148.913 160.44 148.913C160.996 148.913 161.457 148.756 161.821 148.441C162.19 148.122 162.375 147.655 162.375 147.04V146.384ZM167.83 150H166.217V139.363H167.83V150ZM180.463 146.199C180.463 146.828 180.381 147.386 180.217 147.874C180.053 148.362 179.813 148.774 179.499 149.111C179.185 149.444 178.806 149.699 178.364 149.877C177.922 150.05 177.423 150.137 176.867 150.137C176.348 150.137 175.871 150.05 175.438 149.877C175.006 149.699 174.63 149.444 174.311 149.111C173.996 148.774 173.752 148.362 173.579 147.874C173.406 147.386 173.319 146.828 173.319 146.199C173.319 145.365 173.463 144.659 173.75 144.08C174.042 143.497 174.456 143.052 174.994 142.747C175.532 142.442 176.172 142.289 176.915 142.289C177.612 142.289 178.228 142.442 178.761 142.747C179.294 143.052 179.711 143.497 180.012 144.08C180.312 144.663 180.463 145.37 180.463 146.199ZM174.974 146.199C174.974 146.751 175.04 147.222 175.172 147.614C175.309 148.006 175.518 148.307 175.801 148.517C176.083 148.722 176.448 148.824 176.895 148.824C177.341 148.824 177.706 148.722 177.988 148.517C178.271 148.307 178.478 148.006 178.61 147.614C178.743 147.222 178.809 146.751 178.809 146.199C178.809 145.648 178.743 145.181 178.61 144.798C178.478 144.41 178.271 144.117 177.988 143.916C177.706 143.711 177.339 143.608 176.888 143.608C176.222 143.608 175.737 143.832 175.432 144.278C175.126 144.725 174.974 145.365 174.974 146.199ZM184.038 150L181.16 142.433H182.862L184.421 146.876C184.521 147.159 184.612 147.464 184.694 147.792C184.776 148.12 184.833 148.396 184.865 148.619H184.92C184.952 148.387 185.013 148.109 185.104 147.785C185.196 147.457 185.289 147.154 185.385 146.876L186.943 142.433H188.639L185.761 150H184.038ZM192.802 142.289C193.476 142.289 194.055 142.428 194.538 142.706C195.021 142.984 195.393 143.378 195.652 143.889C195.912 144.399 196.042 145.01 196.042 145.721V146.582H190.99C191.008 147.316 191.204 147.881 191.578 148.277C191.956 148.674 192.485 148.872 193.164 148.872C193.647 148.872 194.08 148.826 194.463 148.735C194.85 148.64 195.249 148.501 195.659 148.318V149.624C195.281 149.802 194.896 149.932 194.504 150.014C194.112 150.096 193.643 150.137 193.096 150.137C192.353 150.137 191.699 149.993 191.134 149.706C190.573 149.414 190.133 148.981 189.814 148.407C189.5 147.833 189.343 147.12 189.343 146.268C189.343 145.42 189.486 144.7 189.773 144.107C190.061 143.515 190.464 143.064 190.983 142.754C191.503 142.444 192.109 142.289 192.802 142.289ZM192.802 143.499C192.296 143.499 191.886 143.663 191.571 143.991C191.261 144.319 191.079 144.8 191.024 145.434H194.47C194.465 145.055 194.401 144.72 194.278 144.429C194.16 144.137 193.978 143.909 193.731 143.745C193.49 143.581 193.18 143.499 192.802 143.499ZM201.688 142.289C201.816 142.289 201.955 142.296 202.105 142.31C202.256 142.323 202.386 142.341 202.495 142.364L202.345 143.868C202.249 143.841 202.131 143.82 201.989 143.807C201.853 143.793 201.729 143.786 201.62 143.786C201.333 143.786 201.06 143.834 200.8 143.93C200.54 144.021 200.31 144.162 200.109 144.354C199.909 144.54 199.752 144.775 199.638 145.058C199.524 145.34 199.467 145.668 199.467 146.042V150H197.854V142.433H199.111L199.33 143.766H199.405C199.556 143.497 199.743 143.251 199.966 143.027C200.189 142.804 200.444 142.626 200.731 142.494C201.023 142.357 201.342 142.289 201.688 142.289ZM205.503 139.363V142.036C205.503 142.314 205.494 142.585 205.476 142.85C205.462 143.114 205.446 143.319 205.428 143.465H205.517C205.676 143.201 205.872 142.984 206.104 142.815C206.337 142.642 206.597 142.512 206.884 142.426C207.175 142.339 207.485 142.296 207.813 142.296C208.392 142.296 208.884 142.394 209.29 142.59C209.696 142.781 210.006 143.08 210.22 143.485C210.438 143.891 210.548 144.417 210.548 145.064V150H208.941V145.365C208.941 144.777 208.821 144.338 208.579 144.046C208.338 143.75 207.964 143.602 207.458 143.602C206.97 143.602 206.583 143.704 206.296 143.909C206.013 144.11 205.811 144.408 205.688 144.805C205.564 145.197 205.503 145.675 205.503 146.24V150H203.896V139.363H205.503ZM215.812 142.289C216.486 142.289 217.065 142.428 217.548 142.706C218.031 142.984 218.402 143.378 218.662 143.889C218.922 144.399 219.052 145.01 219.052 145.721V146.582H214C214.018 147.316 214.214 147.881 214.588 148.277C214.966 148.674 215.495 148.872 216.174 148.872C216.657 148.872 217.09 148.826 217.473 148.735C217.86 148.64 218.259 148.501 218.669 148.318V149.624C218.291 149.802 217.906 149.932 217.514 150.014C217.122 150.096 216.652 150.137 216.105 150.137C215.363 150.137 214.709 149.993 214.144 149.706C213.583 149.414 213.143 148.981 212.824 148.407C212.51 147.833 212.353 147.12 212.353 146.268C212.353 145.42 212.496 144.7 212.783 144.107C213.07 143.515 213.474 143.064 213.993 142.754C214.513 142.444 215.119 142.289 215.812 142.289ZM215.812 143.499C215.306 143.499 214.896 143.663 214.581 143.991C214.271 144.319 214.089 144.8 214.034 145.434H217.479C217.475 145.055 217.411 144.72 217.288 144.429C217.17 144.137 216.987 143.909 216.741 143.745C216.5 143.581 216.19 143.499 215.812 143.499ZM223.83 142.289C224.787 142.289 225.509 142.501 225.997 142.925C226.489 143.349 226.735 144.009 226.735 144.907V150H225.594L225.286 148.927H225.231C225.017 149.2 224.796 149.426 224.568 149.604C224.34 149.781 224.076 149.913 223.775 150C223.479 150.091 223.117 150.137 222.688 150.137C222.237 150.137 221.834 150.055 221.479 149.891C221.123 149.722 220.843 149.467 220.638 149.125C220.433 148.783 220.33 148.35 220.33 147.826C220.33 147.047 220.619 146.461 221.198 146.069C221.782 145.677 222.661 145.461 223.837 145.42L225.149 145.372V144.976C225.149 144.451 225.026 144.078 224.78 143.854C224.539 143.631 224.197 143.52 223.755 143.52C223.377 143.52 223.01 143.574 222.654 143.684C222.299 143.793 221.952 143.927 221.615 144.087L221.096 142.952C221.465 142.756 221.884 142.597 222.354 142.474C222.827 142.351 223.32 142.289 223.83 142.289ZM225.143 146.384L224.165 146.418C223.363 146.445 222.8 146.582 222.477 146.828C222.153 147.074 221.991 147.411 221.991 147.84C221.991 148.214 222.103 148.487 222.326 148.66C222.549 148.829 222.843 148.913 223.208 148.913C223.764 148.913 224.224 148.756 224.589 148.441C224.958 148.122 225.143 147.655 225.143 147.04V146.384ZM231.527 150.137C230.625 150.137 229.9 149.809 229.354 149.152C228.811 148.492 228.54 147.519 228.54 146.233C228.54 144.935 228.816 143.952 229.367 143.287C229.923 142.622 230.655 142.289 231.562 142.289C231.944 142.289 232.279 142.341 232.566 142.446C232.854 142.547 233.1 142.683 233.305 142.856C233.514 143.03 233.692 143.223 233.838 143.438H233.913C233.89 143.296 233.863 143.093 233.831 142.829C233.804 142.56 233.79 142.312 233.79 142.084V139.363H235.403V150H234.146L233.858 148.968H233.79C233.653 149.187 233.48 149.385 233.271 149.562C233.065 149.736 232.819 149.875 232.532 149.979C232.25 150.084 231.915 150.137 231.527 150.137ZM231.979 148.831C232.667 148.831 233.152 148.633 233.435 148.236C233.717 147.84 233.863 147.245 233.872 146.452V146.24C233.872 145.393 233.735 144.743 233.462 144.292C233.188 143.836 232.689 143.608 231.965 143.608C231.386 143.608 230.944 143.843 230.639 144.312C230.338 144.777 230.188 145.427 230.188 146.261C230.188 147.095 230.338 147.733 230.639 148.175C230.944 148.612 231.391 148.831 231.979 148.831Z" fill="#8B8E96"/>
<path d="M43.9922 100.758C45.737 100.758 47.2865 101.09 48.6406 101.754C50.0078 102.418 51.082 103.395 51.8633 104.684C52.6445 105.973 53.0352 107.561 53.0352 109.449C53.0352 111.507 52.6055 113.284 51.7461 114.781C50.8997 116.266 49.6302 117.405 47.9375 118.199C46.2578 118.993 44.1615 119.391 41.6484 119.391C40.151 119.391 38.7383 119.26 37.4102 119C36.0951 118.753 34.9427 118.368 33.9531 117.848V112.633C34.9427 113.154 36.1276 113.596 37.5078 113.961C38.901 114.312 40.2096 114.488 41.4336 114.488C42.6315 114.488 43.6406 114.332 44.4609 114.02C45.2812 113.694 45.8997 113.199 46.3164 112.535C46.7461 111.858 46.9609 110.999 46.9609 109.957C46.9609 108.564 46.4922 107.496 45.5547 106.754C44.6172 106.012 43.1784 105.641 41.2383 105.641C40.4961 105.641 39.7214 105.712 38.9141 105.855C38.1198 105.999 37.4557 106.142 36.9219 106.285L34.5195 104.996L35.5938 90.4453H51.082V95.5625H40.8867L40.3594 101.168C40.8021 101.077 41.2839 100.986 41.8047 100.895C42.3255 100.803 43.0547 100.758 43.9922 100.758ZM76.2969 104.723C76.2969 107.027 76.1146 109.085 75.75 110.895C75.3984 112.704 74.8255 114.241 74.0312 115.504C73.25 116.767 72.2214 117.73 70.9453 118.395C69.6693 119.059 68.1198 119.391 66.2969 119.391C64.0052 119.391 62.1237 118.811 60.6523 117.652C59.181 116.48 58.0938 114.801 57.3906 112.613C56.6875 110.413 56.3359 107.783 56.3359 104.723C56.3359 101.637 56.6549 99 57.293 96.8125C57.944 94.612 58.9987 92.9258 60.457 91.7539C61.9154 90.582 63.862 89.9961 66.2969 89.9961C68.5755 89.9961 70.4505 90.582 71.9219 91.7539C73.4062 92.9128 74.5065 94.5924 75.2227 96.793C75.9388 98.9805 76.2969 101.624 76.2969 104.723ZM62.332 104.723C62.332 106.897 62.4492 108.714 62.6836 110.172C62.931 111.617 63.3411 112.704 63.9141 113.434C64.487 114.163 65.2812 114.527 66.2969 114.527C67.2995 114.527 68.0872 114.169 68.6602 113.453C69.2461 112.724 69.6628 111.637 69.9102 110.191C70.1576 108.733 70.2812 106.91 70.2812 104.723C70.2812 102.548 70.1576 100.732 69.9102 99.2734C69.6628 97.8151 69.2461 96.7214 68.6602 95.9922C68.0872 95.25 67.2995 94.8789 66.2969 94.8789C65.2812 94.8789 64.487 95.25 63.9141 95.9922C63.3411 96.7214 62.931 97.8151 62.6836 99.2734C62.4492 100.732 62.332 102.548 62.332 104.723ZM103.855 119L96.9805 96.5977H96.8047C96.8307 97.1315 96.8698 97.9388 96.9219 99.0195C96.987 100.087 97.0456 101.227 97.0977 102.438C97.1497 103.648 97.1758 104.742 97.1758 105.719V119H91.7656V90.4453H100.008L106.766 112.281H106.883L114.051 90.4453H122.293V119H116.648V105.484C116.648 104.586 116.661 103.551 116.688 102.379C116.727 101.207 116.772 100.094 116.824 99.0391C116.876 97.9714 116.915 97.1706 116.941 96.6367H116.766L109.402 119H103.855ZM134.988 97.1641V119H129.031V97.1641H134.988ZM132.02 88.6094C132.905 88.6094 133.667 88.8177 134.305 89.2344C134.943 89.638 135.262 90.3997 135.262 91.5195C135.262 92.6263 134.943 93.3945 134.305 93.8242C133.667 94.2409 132.905 94.4492 132.02 94.4492C131.121 94.4492 130.353 94.2409 129.715 93.8242C129.09 93.3945 128.777 92.6263 128.777 91.5195C128.777 90.3997 129.09 89.638 129.715 89.2344C130.353 88.8177 131.121 88.6094 132.02 88.6094ZM153.66 96.7539C155.991 96.7539 157.866 97.3919 159.285 98.668C160.704 99.931 161.414 101.962 161.414 104.762V119H155.457V106.246C155.457 104.684 155.171 103.505 154.598 102.711C154.038 101.917 153.152 101.52 151.941 101.52C150.118 101.52 148.875 102.138 148.211 103.375C147.547 104.612 147.215 106.396 147.215 108.727V119H141.258V97.1641H145.809L146.609 99.957H146.941C147.41 99.2018 147.99 98.5898 148.68 98.1211C149.383 97.6523 150.158 97.3073 151.004 97.0859C151.863 96.8646 152.749 96.7539 153.66 96.7539ZM182.781 112.516C182.781 114 182.43 115.257 181.727 116.285C181.036 117.301 180.001 118.076 178.621 118.609C177.241 119.13 175.522 119.391 173.465 119.391C171.941 119.391 170.633 119.293 169.539 119.098C168.458 118.902 167.365 118.577 166.258 118.121V113.199C167.443 113.733 168.712 114.176 170.066 114.527C171.434 114.866 172.632 115.035 173.66 115.035C174.819 115.035 175.646 114.866 176.141 114.527C176.648 114.176 176.902 113.72 176.902 113.16C176.902 112.796 176.798 112.47 176.59 112.184C176.395 111.884 175.965 111.552 175.301 111.188C174.637 110.81 173.595 110.322 172.176 109.723C170.809 109.15 169.682 108.57 168.797 107.984C167.924 107.398 167.273 106.708 166.844 105.914C166.427 105.107 166.219 104.085 166.219 102.848C166.219 100.829 167 99.3125 168.562 98.2969C170.138 97.2682 172.241 96.7539 174.871 96.7539C176.225 96.7539 177.514 96.8906 178.738 97.1641C179.975 97.4375 181.245 97.8737 182.547 98.4727L180.75 102.77C179.669 102.301 178.647 101.917 177.684 101.617C176.733 101.318 175.763 101.168 174.773 101.168C173.901 101.168 173.243 101.285 172.801 101.52C172.358 101.754 172.137 102.112 172.137 102.594C172.137 102.945 172.247 103.258 172.469 103.531C172.703 103.805 173.146 104.111 173.797 104.449C174.461 104.775 175.431 105.198 176.707 105.719C177.944 106.227 179.018 106.76 179.93 107.32C180.841 107.867 181.544 108.551 182.039 109.371C182.534 110.178 182.781 111.227 182.781 112.516Z" fill="black"/>
<path d="M33.4375 58V46.5781H35.8594V56H40.4922V58H33.4375ZM52.8516 52.2734C52.8516 53.1536 52.7422 53.9557 52.5234 54.6797C52.3047 55.3984 51.9714 56.0182 51.5234 56.5391C51.0807 57.0599 50.5182 57.4609 49.8359 57.7422C49.1536 58.0182 48.3464 58.1562 47.4141 58.1562C46.4818 58.1562 45.6745 58.0182 44.9922 57.7422C44.3099 57.4609 43.7448 57.0599 43.2969 56.5391C42.8542 56.0182 42.5234 55.3958 42.3047 54.6719C42.0859 53.9479 41.9766 53.1432 41.9766 52.2578C41.9766 51.0755 42.1693 50.0469 42.5547 49.1719C42.9453 48.2917 43.5443 47.6094 44.3516 47.125C45.1589 46.6406 46.1849 46.3984 47.4297 46.3984C48.6693 46.3984 49.6875 46.6406 50.4844 47.125C51.2865 47.6094 51.8802 48.2917 52.2656 49.1719C52.6562 50.0521 52.8516 51.0859 52.8516 52.2734ZM44.5156 52.2734C44.5156 53.0703 44.6146 53.7578 44.8125 54.3359C45.0156 54.9089 45.3307 55.3516 45.7578 55.6641C46.1849 55.9714 46.737 56.125 47.4141 56.125C48.1016 56.125 48.6589 55.9714 49.0859 55.6641C49.513 55.3516 49.8229 54.9089 50.0156 54.3359C50.2135 53.7578 50.3125 53.0703 50.3125 52.2734C50.3125 51.0755 50.0885 50.1328 49.6406 49.4453C49.1927 48.7578 48.4557 48.4141 47.4297 48.4141C46.7474 48.4141 46.1901 48.5703 45.7578 48.8828C45.3307 49.1901 45.0156 49.6328 44.8125 50.2109C44.6146 50.7839 44.5156 51.4714 44.5156 52.2734ZM61.9609 54.8281C61.9609 55.5052 61.7969 56.0938 61.4688 56.5938C61.1406 57.0938 60.6615 57.4792 60.0312 57.75C59.4062 58.0208 58.6458 58.1562 57.75 58.1562C57.3542 58.1562 56.9661 58.1302 56.5859 58.0781C56.2109 58.026 55.849 57.9505 55.5 57.8516C55.1562 57.7474 54.8281 57.6198 54.5156 57.4688V55.2188C55.0573 55.4583 55.6198 55.6745 56.2031 55.8672C56.7865 56.0599 57.3646 56.1562 57.9375 56.1562C58.3333 56.1562 58.651 56.1042 58.8906 56C59.1354 55.8958 59.3125 55.7526 59.4219 55.5703C59.5312 55.388 59.5859 55.1797 59.5859 54.9453C59.5859 54.6589 59.4896 54.4141 59.2969 54.2109C59.1042 54.0078 58.8385 53.8177 58.5 53.6406C58.1667 53.4635 57.7891 53.2734 57.3672 53.0703C57.1016 52.9453 56.8125 52.7943 56.5 52.6172C56.1875 52.4349 55.8906 52.2135 55.6094 51.9531C55.3281 51.6927 55.0964 51.3776 54.9141 51.0078C54.737 50.6328 54.6484 50.1849 54.6484 49.6641C54.6484 48.9818 54.8047 48.3984 55.1172 47.9141C55.4297 47.4297 55.875 47.0599 56.4531 46.8047C57.0365 46.5443 57.724 46.4141 58.5156 46.4141C59.1094 46.4141 59.6745 46.4844 60.2109 46.625C60.7526 46.7604 61.3177 46.9583 61.9062 47.2188L61.125 49.1016C60.599 48.888 60.1276 48.724 59.7109 48.6094C59.2943 48.4896 58.8698 48.4297 58.4375 48.4297C58.1354 48.4297 57.8776 48.4792 57.6641 48.5781C57.4505 48.6719 57.2891 48.8073 57.1797 48.9844C57.0703 49.1562 57.0156 49.3568 57.0156 49.5859C57.0156 49.8568 57.0938 50.0859 57.25 50.2734C57.4115 50.4557 57.651 50.6328 57.9688 50.8047C58.2917 50.9766 58.6927 51.1771 59.1719 51.4062C59.7552 51.6823 60.2526 51.9714 60.6641 52.2734C61.0807 52.5703 61.401 52.9219 61.625 53.3281C61.849 53.7292 61.9609 54.2292 61.9609 54.8281ZM68.4375 58H66.0156V48.5938H62.9141V46.5781H71.5391V48.5938H68.4375V58ZM81.8594 58H79.4375V48.5938H76.3359V46.5781H84.9609V48.5938H81.8594V58ZM86.7188 58V46.5781H89.1406V58H86.7188ZM96.8516 58L94.1016 49.0391H94.0312C94.0417 49.2526 94.0573 49.5755 94.0781 50.0078C94.1042 50.4349 94.1276 50.8906 94.1484 51.375C94.1693 51.8594 94.1797 52.2969 94.1797 52.6875V58H92.0156V46.5781H95.3125L98.0156 55.3125H98.0625L100.93 46.5781H104.227V58H101.969V52.5938C101.969 52.2344 101.974 51.8203 101.984 51.3516C102 50.8828 102.018 50.4375 102.039 50.0156C102.06 49.5885 102.076 49.2682 102.086 49.0547H102.016L99.0703 58H96.8516ZM113.688 58H107.109V46.5781H113.688V48.5625H109.531V51.0703H113.398V53.0547H109.531V56H113.688V58Z" fill="black"/>
<circle cx="332" cy="52" r="20" fill="#F7946F"/>
<path fill-rule="evenodd" clip-rule="evenodd" d="M332.25 43.75C327.693 43.75 324 47.4433 324 52C324 56.5558 327.693 60.25 332.25 60.25C336.807 60.25 340.5 56.5558 340.5 52C340.5 47.4433 336.807 43.75 332.25 43.75ZM322.5 52C322.5 46.6149 326.865 42.25 332.25 42.25C337.635 42.25 342 46.6149 342 52C342 57.3841 337.635 61.75 332.25 61.75C326.865 61.75 322.5 57.3841 322.5 52Z" fill="black"/>
<path fill-rule="evenodd" clip-rule="evenodd" d="M331.922 47.8242C332.336 47.8242 332.672 48.16 332.672 48.5742V52.2468L335.481 53.9258C335.837 54.1383 335.953 54.5988 335.74 54.9544C335.528 55.3099 335.067 55.4259 334.712 55.2134L331.537 53.3161C331.311 53.1807 331.172 52.9363 331.172 52.6723V48.5742C331.172 48.16 331.508 47.8242 331.922 47.8242Z" fill="black"/>
</svg>
